<?xml version="1.0" encoding="UTF-8"?>
<svg id="_레이어_2" data-name="레이어 2" xmlns="http://www.w3.org/2000/svg" viewBox="0 0 648.51 68.6">
  <defs>
    <style>
      .cls-1 {
        fill: none;
      }

      .cls-1, .cls-2 {
        stroke-width: 0px;
      }

      .cls-2 {
        fill: #fff;
      }
    </style>
  </defs>
  <g id="_레이어_1-2" data-name="레이어 1">
    <g>
      <g>
        <path class="cls-2" d="m313.42,3.57c0,1.03-.32,1.82-.96,2.35-.64.53-1.39.88-2.25,1.03-.86.15-1.77.23-2.72.23h-.83v3.28c0,.37.04.66.12.86s.25.36.52.46c.27.11.67.16,1.22.16v.85h-6.33v-.85c.54,0,.94-.06,1.19-.17.26-.11.42-.27.5-.47.08-.2.12-.49.12-.84V2.52c0-.36-.04-.64-.11-.84-.07-.2-.24-.36-.5-.47-.26-.11-.66-.17-1.2-.17V.17l3.59-.09c.19,0,.39-.01.61-.01.22,0,.39,0,.52,0,.13,0,.32,0,.58,0,.32,0,.55,0,.71,0,.74.03,1.44.1,2.12.21.68.11,1.37.43,2.06.94.7.52,1.04,1.3,1.04,2.36Zm-2.86.02c0-1-.29-1.67-.88-2.01-.58-.34-1.35-.51-2.3-.51-.17,0-.42,0-.72.02v5.06h.85c.91,0,1.64-.16,2.21-.47.56-.31.84-1.01.84-2.09Z"/>
        <path class="cls-2" d="m322.35,6.36c0,.36-.11.64-.33.85-.22.21-.48.31-.77.31-.35,0-.66-.17-.93-.52-.12-.15-.23-.27-.31-.33-.08-.07-.19-.1-.34-.1-.48,0-.86.26-1.13.78-.27.52-.4,1.07-.4,1.63v1.61c0,.52.07.88.2,1.07.13.19.48.29,1.05.29h.49v.85h-5.76v-.85h.48c.52,0,.84-.1.96-.3.12-.2.18-.55.18-1.06v-2.71c0-.41-.04-.71-.12-.89-.08-.18-.23-.3-.45-.36-.22-.06-.56-.09-1.04-.09v-.85l3.62-.8c.09.32.18.99.26,2.01.17-.36.4-.7.68-1,.28-.3.6-.55.95-.73s.71-.28,1.07-.28c.51,0,.91.14,1.21.43.3.28.45.63.45,1.04Z"/>
        <path class="cls-2" d="m332.21,8.98c0,.84-.2,1.57-.61,2.2-.41.62-.96,1.1-1.66,1.43-.7.33-1.46.5-2.29.5-.78,0-1.52-.15-2.21-.45-.7-.3-1.26-.76-1.71-1.38-.44-.62-.66-1.38-.66-2.27,0-1.34.46-2.36,1.37-3.06.92-.7,2-1.04,3.27-1.04.94,0,1.75.19,2.43.56s1.2.87,1.54,1.49c.35.62.52,1.3.52,2.03Zm-2.56-.06c0-1.05-.14-1.84-.42-2.38-.28-.53-.82-.8-1.62-.8-.51,0-.91.12-1.2.35-.29.23-.49.59-.6,1.08-.11.49-.17,1.12-.17,1.89,0,.95.13,1.72.38,2.31.25.59.81.88,1.66.88.56,0,.99-.16,1.29-.49.29-.33.48-.73.57-1.21.08-.48.13-1.03.13-1.64Z"/>
        <path class="cls-2" d="m344.21,12.69c-1.31.06-2.51.19-3.59.42-.09-.19-.14-.51-.17-.97-.79.65-1.66.97-2.61.97-.73,0-1.41-.19-2.03-.57-.62-.38-1.12-.89-1.48-1.54-.37-.65-.55-1.36-.55-2.13,0-.48.08-.95.24-1.42.16-.47.41-.9.76-1.29.34-.39.77-.7,1.28-.92s1.09-.33,1.74-.33c.48,0,.88.06,1.22.18.34.12.61.25.82.4.2.15.41.33.62.54v-3.04c0-.41-.03-.71-.1-.89-.07-.18-.2-.29-.38-.34-.19-.05-.5-.08-.92-.09v-.85l3.8-.8v10.39c0,.45.02.75.06.93.04.17.15.3.34.38.19.08.51.12.96.14v.85Zm-3.76-1.75v-3.76c-.26-.32-.57-.6-.93-.86s-.79-.39-1.28-.39c-.3,0-.59.08-.85.25s-.48.38-.64.64c-.27.43-.41,1.15-.41,2.16s.19,1.8.58,2.32c.39.52.87.78,1.44.78.41,0,.8-.1,1.16-.31s.67-.48.93-.83Z"/>
        <path class="cls-2" d="m355.37,12.75c-.18.01-.49.03-.94.06-.45.03-.95.07-1.5.12-.55.05-1,.11-1.33.18v-1.35c-.8.92-1.75,1.37-2.87,1.37-.81,0-1.41-.17-1.8-.52s-.63-.73-.72-1.15c-.09-.42-.14-.86-.14-1.34v-2.74c0-.36-.02-.63-.06-.8-.04-.17-.16-.3-.34-.39-.19-.09-.49-.13-.92-.13v-.85h3.72v5.11c0,1.05.41,1.58,1.22,1.58.46,0,.86-.17,1.18-.5.32-.33.57-.65.74-.95v-3.06c0-.38-.02-.66-.07-.83-.05-.17-.17-.29-.36-.38-.19-.08-.51-.13-.96-.13v-.85h3.78v5.58c0,.29.03.51.08.65.06.14.18.25.38.33.2.08.5.12.91.12v.85Z"/>
        <path class="cls-2" d="m364.61,10.92c-.75,1.46-1.95,2.19-3.61,2.19-.77,0-1.5-.16-2.19-.47-.69-.32-1.24-.77-1.66-1.37-.42-.6-.63-1.3-.63-2.11,0-.56.11-1.09.34-1.6.23-.51.55-.96.98-1.37s.93-.73,1.52-.95c.58-.23,1.21-.34,1.88-.34.85,0,1.6.17,2.25.51.65.34.97.8.97,1.4,0,.27-.1.5-.31.7-.2.19-.44.29-.71.29s-.45-.06-.58-.18c-.14-.12-.23-.24-.27-.36-.04-.12-.11-.34-.19-.66-.08-.3-.21-.52-.4-.64-.19-.13-.45-.19-.78-.19-.56,0-1.06.21-1.5.63-.44.42-.65,1.2-.65,2.34,0,.61.09,1.18.26,1.69.18.51.45.92.83,1.22.38.3.84.45,1.4.45.61,0,1.08-.15,1.4-.45.32-.3.61-.66.85-1.07l.78.36Z"/>
        <path class="cls-2" d="m374.1,8.72h-5.71c0,.12.02.37.05.75.03.38.11.78.26,1.18.15.4.4.74.75,1.02.36.28.83.41,1.43.41.33,0,.72-.08,1.19-.25s.87-.49,1.21-.96l.72.49c-.73,1.17-1.89,1.75-3.48,1.75-.71,0-1.36-.1-1.94-.31-.58-.2-1.08-.49-1.49-.85-.41-.36-.72-.79-.94-1.29-.22-.49-.32-1.03-.32-1.6,0-.75.18-1.44.54-2.08.36-.64.88-1.14,1.55-1.52.67-.38,1.44-.57,2.31-.57s1.56.18,2.15.55c.58.37,1.02.84,1.29,1.42.28.58.42,1.2.42,1.86Zm-2.3-.85c0-1.41-.56-2.12-1.67-2.12-.54,0-.95.19-1.24.58-.29.39-.45.9-.48,1.53h3.39Z"/>
        <path class="cls-2" d="m383.13,6.36c0,.36-.11.64-.33.85-.22.21-.48.31-.77.31-.35,0-.66-.17-.93-.52-.12-.15-.23-.27-.31-.33-.08-.07-.19-.1-.34-.1-.48,0-.86.26-1.13.78-.27.52-.4,1.07-.4,1.63v1.61c0,.52.07.88.2,1.07.13.19.48.29,1.05.29h.49v.85h-5.76v-.85h.48c.52,0,.84-.1.96-.3.12-.2.18-.55.18-1.06v-2.71c0-.41-.04-.71-.12-.89-.08-.18-.23-.3-.45-.36-.22-.06-.56-.09-1.04-.09v-.85l3.62-.8c.09.32.18.99.26,2.01.17-.36.4-.7.68-1,.28-.3.6-.55.95-.73s.71-.28,1.07-.28c.51,0,.91.14,1.21.43.3.28.45.63.45,1.04Z"/>
        <path class="cls-2" d="m384.48,5.68c0-.27.09-.5.28-.7.19-.2.43-.3.71-.3s.51.1.71.29c.19.2.29.43.29.71s-.1.51-.3.7c-.2.2-.43.29-.71.29s-.51-.1-.71-.3c-.19-.2-.29-.43-.29-.7Zm0,6.43c0-.27.1-.51.29-.7s.43-.29.7-.29.51.1.71.29c.19.2.29.43.29.7s-.1.52-.3.71c-.2.2-.43.29-.71.29s-.51-.1-.71-.3c-.19-.2-.29-.43-.29-.7Z"/>
        <path class="cls-2" d="m405.69,13.11h-.42l-3.83-10.37-3.35,10.37h-.45l-3.03-9.8c-.27-.89-.47-1.48-.59-1.78-.12-.29-.28-.51-.47-.65-.2-.14-.52-.22-.97-.24V.22h4.72v.43c-.57.04-.93.12-1.09.25-.16.13-.24.3-.24.53,0,.2.13.73.39,1.57l2.25,7.33,3.28-10.1h.52l3.69,10.1,1.92-6.68c.25-.9.38-1.49.38-1.77,0-.82-.44-1.22-1.31-1.22V.22h3.43v.43c-.51.04-.88.22-1.13.56-.25.34-.56,1.15-.94,2.43l-2.76,9.47Z"/>
        <path class="cls-2" d="m409.71,8.99c0-1.16.39-2.14,1.17-2.92.78-.78,1.74-1.17,2.88-1.17s2.11.39,2.88,1.18c.78.79,1.17,1.76,1.17,2.91,0,1.28-.4,2.29-1.19,3.02-.79.73-1.75,1.1-2.87,1.1s-2.07-.37-2.86-1.12c-.79-.75-1.18-1.75-1.18-3Zm1.54.05c0,1.35.22,2.29.66,2.83.44.54,1.05.81,1.85.81s1.43-.27,1.86-.81c.43-.54.64-1.49.64-2.83s-.21-2.29-.64-2.86c-.43-.57-1.05-.85-1.87-.85s-1.43.28-1.86.85c-.43.57-.64,1.52-.64,2.86Z"/>
        <path class="cls-2" d="m421.12,4.9h.25c.14.38.22.91.24,1.57.45-.53.91-.92,1.4-1.18s1-.39,1.53-.39c.61,0,1.1.13,1.49.38.39.25.64.56.75.93.11.37.17.9.17,1.61v2.38c0,.88.02,1.41.05,1.6.03.19.13.34.29.43.16.1.46.14.9.14v.43h-3.89v-.43h.18c.45,0,.74-.06.87-.19s.21-.28.23-.45c.02-.17.03-.68.03-1.53v-2.45c0-.6-.03-1.03-.09-1.28-.06-.26-.22-.48-.47-.68-.26-.2-.58-.3-.98-.3-.45,0-.88.13-1.29.4-.41.27-.8.67-1.17,1.21v3.1c0,.88.02,1.41.05,1.6.03.19.13.34.3.43.16.1.47.14.91.14v.43h-3.84v-.43c.43,0,.72-.04.89-.13.17-.09.27-.22.31-.39.04-.18.06-.73.06-1.66v-2.26c0-.88-.02-1.42-.05-1.61-.03-.19-.13-.33-.3-.43-.16-.1-.47-.14-.91-.14v-.43c.68-.07,1.38-.22,2.09-.43Z"/>
        <path class="cls-2" d="m435.74,6.01v-2.97c0-.81-.01-1.32-.03-1.53-.02-.21-.11-.37-.26-.48-.16-.11-.43-.17-.83-.17h-.2v-.43c.75-.02,1.57-.15,2.46-.39h.2v10.21c0,.88.01,1.42.05,1.61.03.19.13.33.29.43s.47.14.91.14v.43c-.9.02-1.69.1-2.39.24-.07-.29-.11-.75-.11-1.37-.46.46-.93.8-1.42,1.03s-.99.34-1.51.34c-.98,0-1.83-.4-2.55-1.19-.71-.79-1.07-1.75-1.07-2.88,0-1.24.36-2.24,1.09-3,.73-.76,1.6-1.15,2.61-1.15.51,0,1,.09,1.46.28.46.19.89.46,1.3.83Zm0,.54c-.41-.35-.82-.62-1.23-.79-.41-.18-.82-.26-1.24-.26-.7,0-1.28.27-1.75.81-.47.54-.7,1.42-.7,2.63s.24,2.15.72,2.74c.48.59,1.07.88,1.78.88.47,0,.91-.11,1.31-.33.4-.22.77-.56,1.11-1v-4.67Z"/>
        <path class="cls-2" d="m446.09,7.77h-5.3c-.02.37-.04.64-.04.82,0,1.34.21,2.34.63,3.01.42.67,1.04,1.01,1.87,1.01,1.13,0,1.92-.5,2.39-1.51h.45c-.2.63-.59,1.12-1.18,1.48-.59.36-1.23.53-1.92.53-.64,0-1.25-.16-1.82-.49-.57-.33-1.04-.78-1.41-1.38s-.55-1.31-.55-2.16c0-1.2.35-2.2,1.06-2.99.71-.79,1.59-1.19,2.64-1.19,1,0,1.77.3,2.31.91.54.61.83,1.26.86,1.97Zm-1.62-.37c.02-.14.03-.27.03-.38,0-.54-.16-.97-.48-1.27-.32-.3-.71-.45-1.17-.45-1.13,0-1.8.7-2.01,2.1h3.64Z"/>
        <path class="cls-2" d="m449.98,6.84c.21-.55.55-1.01,1.02-1.38.47-.37.94-.56,1.39-.56.41,0,.73.13.96.38.23.25.35.51.35.78,0,.18-.06.33-.18.46-.12.13-.27.19-.44.19-.31,0-.54-.23-.71-.69-.11-.31-.28-.46-.5-.46-.27,0-.58.18-.96.54-.37.36-.61.74-.71,1.13s-.16.92-.16,1.6v1.35c0,.81,0,1.32.03,1.53.02.21.11.37.26.48.15.11.43.17.83.17h.26v.43h-4.04v-.43h.2c.37,0,.64-.05.79-.15.16-.1.25-.25.28-.43s.05-.72.05-1.6v-2.14c0-.82-.01-1.33-.03-1.54-.02-.21-.11-.37-.26-.48-.16-.11-.43-.17-.83-.17h-.2v-.42c.58-.07,1.34-.25,2.28-.55.18.49.28,1.14.3,1.94Z"/>
        <path class="cls-2" d="m458.4,5.2h3.06v.43c-.56.01-1.32.43-2.26,1.26-.3.26-.77.64-1.41,1.14l2.71,3.17c.41.48.73.79.96.93.24.15.48.22.72.24v.43h-3.79v-.43c.63-.01.95-.15.95-.41,0-.12-.21-.42-.62-.9l-1.95-2.26-.4.3v1.09c0,.81.01,1.32.03,1.53.02.21.11.37.26.48.16.11.42.17.81.17v.43h-3.85v-.43h.29c.45,0,.73-.06.87-.19.13-.13.21-.28.23-.45.02-.18.03-.69.03-1.54V2.58c0-.74-.07-1.21-.21-1.41-.14-.2-.47-.31-1.01-.31v-.43c.37,0,.8-.04,1.31-.13.51-.09.86-.17,1.04-.26h.19v8.54l.8-.56c1.29-.92,1.94-1.57,1.94-1.98,0-.27-.24-.41-.71-.43v-.43Z"/>
        <path class="cls-2" d="m465.15,4.9v5.3c0,.81.01,1.32.04,1.53.02.21.11.37.27.48.16.11.43.17.83.17h.2v.43h-4.09v-.43h.32c.44,0,.72-.06.86-.19.13-.13.21-.28.23-.45.02-.18.03-.69.03-1.54v-2.3c0-.89-.04-1.43-.12-1.63-.08-.2-.19-.32-.33-.37-.14-.05-.38-.07-.73-.07h-.25v-.43c1.1-.11,1.95-.27,2.56-.49h.2Zm-1.79-3.88c0-.27.09-.49.28-.69.19-.19.42-.29.68-.29s.49.1.68.29c.19.19.28.42.28.69s-.09.5-.28.7c-.19.19-.41.29-.68.29s-.49-.1-.68-.29c-.19-.19-.28-.42-.28-.7Z"/>
        <path class="cls-2" d="m473.98,6.01v-2.97c0-.81-.01-1.32-.03-1.53-.02-.21-.11-.37-.26-.48-.16-.11-.43-.17-.83-.17h-.2v-.43c.75-.02,1.57-.15,2.46-.39h.2v10.21c0,.88.01,1.42.05,1.61.03.19.13.33.29.43s.47.14.91.14v.43c-.9.02-1.69.1-2.39.24-.07-.29-.11-.75-.11-1.37-.46.46-.93.8-1.42,1.03s-.99.34-1.51.34c-.98,0-1.83-.4-2.55-1.19-.71-.79-1.07-1.75-1.07-2.88,0-1.24.36-2.24,1.09-3,.73-.76,1.6-1.15,2.61-1.15.51,0,1,.09,1.46.28.46.19.89.46,1.3.83Zm0,.54c-.41-.35-.82-.62-1.23-.79-.41-.18-.82-.26-1.24-.26-.7,0-1.28.27-1.75.81-.47.54-.7,1.42-.7,2.63s.24,2.15.72,2.74c.48.59,1.07.88,1.78.88.47,0,.91-.11,1.31-.33.4-.22.77-.56,1.11-1v-4.67Z"/>
        <path class="cls-2" d="m477.77,16.42v-.46c.66-.19,1.17-.53,1.53-1.01.37-.48.55-.96.55-1.44,0-.41-.13-.61-.39-.61-.05,0-.13.02-.24.05-.09.03-.18.05-.26.05-.28,0-.51-.08-.7-.25-.19-.16-.28-.38-.28-.64,0-.28.09-.52.27-.71.18-.19.41-.28.7-.28.44,0,.8.2,1.07.61.28.41.41.88.41,1.42,0,.79-.24,1.48-.72,2.07-.48.59-1.13,1-1.94,1.21Z"/>
        <path class="cls-2" d="m492.86,6.03c1.43.11,2.49.46,3.18,1.07.69.61,1.04,1.36,1.04,2.27,0,.79-.24,1.47-.71,2.05-.47.57-1.07.95-1.8,1.12-.73.18-1.71.26-2.95.26h-4.94v-.43h.48c.54,0,.91-.07,1.12-.2.21-.14.34-.35.39-.64.06-.29.08-.96.08-2.01V3.4c0-1.02-.03-1.68-.09-1.98-.06-.3-.18-.5-.37-.61-.19-.11-.6-.17-1.24-.17h-.24V.22l2.07-.06,2.36-.07c3.44,0,5.16.99,5.16,2.97,0,.82-.3,1.47-.89,1.97-.59.5-1.48.83-2.67,1Zm-2.27-.18c.15,0,.28,0,.39,0,1.34,0,2.25-.21,2.74-.63.49-.42.73-1.1.73-2.04,0-.66-.1-1.16-.29-1.52-.19-.36-.48-.64-.86-.83-.38-.2-1.04-.29-1.97-.29-.24,0-.49,0-.74.03v5.28Zm0,.45v2.8c0,1.19.02,1.95.06,2.27.04.32.16.57.35.73.19.17.56.25,1.12.25.99,0,1.73-.25,2.23-.76.49-.51.74-1.27.74-2.28s-.28-1.8-.84-2.3c-.56-.49-1.54-.74-2.96-.74-.22,0-.46,0-.71.02Z"/>
        <path class="cls-2" d="m501.09,6.84c.21-.55.55-1.01,1.02-1.38.47-.37.94-.56,1.39-.56.41,0,.73.13.96.38.23.25.35.51.35.78,0,.18-.06.33-.18.46-.12.13-.27.19-.44.19-.31,0-.54-.23-.71-.69-.11-.31-.28-.46-.5-.46-.27,0-.58.18-.96.54-.37.36-.61.74-.71,1.13s-.16.92-.16,1.6v1.35c0,.81,0,1.32.03,1.53.02.21.11.37.26.48.15.11.43.17.83.17h.26v.43h-4.04v-.43h.2c.37,0,.64-.05.79-.15.16-.1.25-.25.28-.43s.05-.72.05-1.6v-2.14c0-.82-.01-1.33-.03-1.54-.02-.21-.11-.37-.26-.48-.16-.11-.43-.17-.83-.17h-.2v-.42c.58-.07,1.34-.25,2.28-.55.18.49.28,1.14.3,1.94Z"/>
        <path class="cls-2" d="m512.25,7.77h-5.3c-.02.37-.04.64-.04.82,0,1.34.21,2.34.63,3.01.42.67,1.04,1.01,1.87,1.01,1.13,0,1.92-.5,2.39-1.51h.45c-.2.63-.59,1.12-1.18,1.48-.59.36-1.23.53-1.92.53-.64,0-1.25-.16-1.82-.49-.57-.33-1.04-.78-1.41-1.38s-.55-1.31-.55-2.16c0-1.2.35-2.2,1.06-2.99.71-.79,1.59-1.19,2.64-1.19,1,0,1.77.3,2.31.91.54.61.83,1.26.86,1.97Zm-1.62-.37c.02-.14.03-.27.03-.38,0-.54-.16-.97-.48-1.27-.32-.3-.71-.45-1.17-.45-1.13,0-1.8.7-2.01,2.1h3.64Z"/>
        <path class="cls-2" d="m521.35,11.41h.34c-.05,1.06-.57,1.59-1.56,1.59-.42,0-.75-.11-1-.33s-.4-.55-.48-.99c-.62.44-1.18.77-1.69.99-.51.22-.97.33-1.37.33-.51,0-.96-.15-1.33-.45s-.56-.69-.56-1.18c0-.64.31-1.19.93-1.67.62-.48,1.48-.94,2.58-1.39l1.44-.58v-.37c0-.53-.03-.91-.1-1.14-.07-.23-.25-.45-.53-.63s-.66-.28-1.12-.28c-.93,0-1.44.31-1.55.93-.1.63-.36.95-.78.95-.38,0-.57-.18-.57-.54s.25-.73.75-1.14c.5-.4,1.28-.61,2.34-.61.79,0,1.39.12,1.83.37.43.25.72.53.86.84.14.32.21.8.21,1.45v3.07c0,.72.04,1.18.11,1.38s.24.31.48.31c.41,0,.66-.3.76-.91Zm-2.69-3.25l-1.01.41c-1.6.65-2.39,1.47-2.39,2.45,0,.39.1.7.31.94.2.24.47.36.8.36.29,0,.63-.1,1.01-.29s.81-.48,1.29-.86v-3.01Z"/>
        <path class="cls-2" d="m529.02,6.01v-2.97c0-.81-.01-1.32-.03-1.53-.02-.21-.11-.37-.26-.48-.16-.11-.43-.17-.83-.17h-.2v-.43c.75-.02,1.57-.15,2.46-.39h.2v10.21c0,.88.01,1.42.05,1.61.03.19.13.33.29.43s.47.14.91.14v.43c-.9.02-1.69.1-2.39.24-.07-.29-.11-.75-.11-1.37-.46.46-.93.8-1.42,1.03s-.99.34-1.51.34c-.98,0-1.83-.4-2.55-1.19-.71-.79-1.07-1.75-1.07-2.88,0-1.24.36-2.24,1.09-3,.73-.76,1.6-1.15,2.61-1.15.51,0,1,.09,1.46.28.46.19.89.46,1.3.83Zm0,.54c-.41-.35-.82-.62-1.23-.79-.41-.18-.82-.26-1.24-.26-.7,0-1.28.27-1.75.81-.47.54-.7,1.42-.7,2.63s.24,2.15.72,2.74c.48.59,1.07.88,1.78.88.47,0,.91-.11,1.31-.33.4-.22.77-.56,1.11-1v-4.67Z"/>
        <path class="cls-2" d="m533.61,13.11h-.36V2.94c0-.74-.02-1.22-.06-1.44-.04-.22-.14-.38-.31-.48-.16-.1-.45-.16-.86-.16v-.43c.37,0,.8-.04,1.32-.13.51-.09.86-.17,1.05-.26h.19v6.01c.43-.39.87-.68,1.32-.87.45-.19.9-.29,1.35-.29,1.09,0,1.99.38,2.69,1.14s1.05,1.73,1.05,2.91-.36,2.18-1.08,2.97c-.72.79-1.65,1.19-2.79,1.19-.56,0-1.06-.12-1.48-.35-.42-.23-.78-.58-1.06-1.05-.4.4-.73.87-.97,1.4Zm.97-6.5v2.98c0,.77.05,1.32.15,1.66.1.34.35.66.74.97.39.31.84.46,1.36.46.8,0,1.43-.33,1.91-.98.47-.66.71-1.6.71-2.83,0-1.13-.22-1.99-.66-2.58-.44-.59-1.03-.89-1.77-.89-.42,0-.83.1-1.24.3-.41.2-.81.51-1.2.91Z"/>
        <path class="cls-2" d="m549.27,7.77h-5.3c-.02.37-.04.64-.04.82,0,1.34.21,2.34.63,3.01.42.67,1.04,1.01,1.87,1.01,1.13,0,1.92-.5,2.39-1.51h.45c-.2.63-.59,1.12-1.18,1.48-.59.36-1.23.53-1.92.53-.64,0-1.25-.16-1.82-.49-.57-.33-1.04-.78-1.41-1.38s-.55-1.31-.55-2.16c0-1.2.35-2.2,1.06-2.99.71-.79,1.59-1.19,2.64-1.19,1,0,1.77.3,2.31.91.54.61.83,1.26.86,1.97Zm-1.62-.37c.02-.14.03-.27.03-.38,0-.54-.16-.97-.48-1.27-.32-.3-.71-.45-1.17-.45-1.13,0-1.8.7-2.01,2.1h3.64Z"/>
        <path class="cls-2" d="m558.36,11.41h.34c-.05,1.06-.57,1.59-1.56,1.59-.42,0-.75-.11-1-.33s-.4-.55-.48-.99c-.62.44-1.18.77-1.69.99-.51.22-.97.33-1.37.33-.51,0-.96-.15-1.33-.45s-.56-.69-.56-1.18c0-.64.31-1.19.93-1.67.62-.48,1.48-.94,2.58-1.39l1.44-.58v-.37c0-.53-.03-.91-.1-1.14-.07-.23-.25-.45-.53-.63s-.66-.28-1.12-.28c-.93,0-1.44.31-1.55.93-.1.63-.36.95-.78.95-.38,0-.57-.18-.57-.54s.25-.73.75-1.14c.5-.4,1.28-.61,2.34-.61.79,0,1.39.12,1.83.37.43.25.72.53.86.84.14.32.21.8.21,1.45v3.07c0,.72.04,1.18.11,1.38s.24.31.48.31c.41,0,.66-.3.76-.91Zm-2.69-3.25l-1.01.41c-1.6.65-2.39,1.47-2.39,2.45,0,.39.1.7.31.94.2.24.47.36.8.36.29,0,.63-.1,1.01-.29s.81-.48,1.29-.86v-3.01Z"/>
        <path class="cls-2" d="m563.93,5.63h-2.29v4.59c0,.71.03,1.18.09,1.42.06.24.19.44.39.59s.42.22.65.22c.45,0,.83-.25,1.16-.76l.3.18c-.19.41-.47.72-.85.92-.38.21-.75.31-1.14.31-.45,0-.84-.13-1.17-.39-.34-.26-.55-.57-.63-.92-.08-.35-.12-.97-.12-1.86v-4.3h-1.1v-.43c.51-.01.96-.23,1.36-.64.4-.41.66-1,.77-1.74h.3v2.38h2.29v.43Z"/>
        <path class="cls-2" d="m565.28,16.42v-.46c.66-.19,1.17-.53,1.53-1.01.37-.48.55-.96.55-1.44,0-.41-.13-.61-.39-.61-.05,0-.13.02-.24.05-.09.03-.18.05-.26.05-.28,0-.51-.08-.7-.25-.19-.16-.28-.38-.28-.64,0-.28.09-.52.27-.71.18-.19.41-.28.7-.28.44,0,.8.2,1.07.61.28.41.41.88.41,1.42,0,.79-.24,1.48-.72,2.07-.48.59-1.13,1-1.94,1.21Z"/>
        <path class="cls-2" d="m313.7,30.08h.4v4.41h-.4c-.11-.5-.31-.94-.6-1.33-1.11,1.25-2.52,1.87-4.24,1.87-1.82,0-3.3-.58-4.46-1.73-1.15-1.15-1.73-2.67-1.73-4.56,0-1.24.27-2.41.8-3.51.53-1.1,1.27-1.91,2.23-2.44.95-.53,2-.8,3.14-.8.94,0,1.79.19,2.56.58.76.39,1.33.82,1.71,1.29.27-.53.43-1.07.48-1.63h.41l.11,4.77h-.4c-.28-1.69-.85-2.87-1.7-3.53-.86-.66-1.82-.99-2.9-.99-1.32,0-2.36.54-3.14,1.6-.78,1.07-1.16,2.6-1.16,4.59,0,1.89.42,3.33,1.27,4.34.85,1.01,1.9,1.51,3.16,1.51.67,0,1.36-.16,2.07-.49.71-.33,1.26-.88,1.67-1.67.41-.78.65-1.54.73-2.27Z"/>
        <path class="cls-2" d="m323.72,33.41h.34c-.06,1.06-.58,1.59-1.56,1.59-.42,0-.75-.11-1-.33-.24-.22-.4-.55-.48-.99-.62.44-1.18.77-1.69.99-.51.22-.97.33-1.37.33-.51,0-.96-.15-1.33-.45s-.56-.69-.56-1.18c0-.64.31-1.19.93-1.67.62-.48,1.48-.94,2.58-1.39l1.44-.58v-.37c0-.53-.03-.91-.1-1.14-.07-.23-.25-.45-.53-.63s-.66-.28-1.12-.28c-.93,0-1.44.31-1.55.93-.1.63-.36.95-.78.95-.38,0-.57-.18-.57-.54s.25-.73.75-1.14c.5-.4,1.28-.61,2.34-.61.79,0,1.39.12,1.83.37.43.25.72.53.86.84.14.32.21.8.21,1.45v3.07c0,.72.04,1.18.11,1.38s.24.31.48.31c.41,0,.66-.3.76-.91Zm-2.69-3.25l-1.01.41c-1.6.65-2.39,1.47-2.39,2.45,0,.39.1.7.31.94.2.24.47.36.8.36.29,0,.63-.1,1.01-.29s.81-.48,1.29-.86v-3.01Z"/>
        <path class="cls-2" d="m325.03,35.04v-2.5h.36c.42,1.44,1.17,2.16,2.25,2.16.47,0,.82-.14,1.05-.43.23-.28.35-.6.35-.94,0-.4-.12-.72-.37-.97-.25-.25-.75-.56-1.47-.92-.77-.38-1.32-.75-1.65-1.11-.33-.36-.5-.8-.5-1.33s.18-.98.54-1.43c.36-.45.86-.68,1.51-.68s1.21.27,1.64.81c.09-.09.21-.32.36-.68h.34v2.35h-.34c-.12-.56-.36-1.05-.72-1.45-.36-.41-.77-.61-1.26-.61-.37,0-.67.11-.9.34-.23.23-.34.5-.34.8,0,.33.13.62.38.86.25.25.72.53,1.42.84,1.05.48,1.69.94,1.93,1.39.23.46.35.9.35,1.32,0,.66-.22,1.2-.65,1.61-.44.41-.99.62-1.65.62-.7,0-1.32-.29-1.87-.86-.17.19-.3.45-.41.8h-.36Z"/>
        <path class="cls-2" d="m333.69,28.46c.37-.52.79-.91,1.25-1.17.46-.26.97-.39,1.52-.39.62,0,1.14.13,1.55.39s.68.58.8.96c.12.38.19,1,.19,1.85v2.1c0,.89.02,1.43.05,1.62.03.19.13.33.3.42.17.09.48.13.93.13v.43h-3.92v-.43h.18c.45,0,.74-.06.88-.19.13-.13.21-.28.23-.46.02-.18.03-.68.03-1.53v-2.28c0-.63-.04-1.1-.11-1.4-.07-.3-.25-.55-.52-.75-.28-.2-.62-.3-1.04-.3-.48,0-.92.14-1.3.42-.38.28-.72.7-1.01,1.27v3.04c0,.85.01,1.38.04,1.58.03.2.12.35.28.45.16.1.46.15.88.15v.43h-3.86v-.43h.19c.45,0,.73-.06.87-.19.13-.13.21-.28.23-.45.02-.18.03-.69.03-1.54v-7.57c0-.77-.07-1.25-.22-1.46s-.49-.31-1.04-.31v-.43c.96,0,1.76-.13,2.39-.39h.2v6.41Z"/>
        <path class="cls-2" d="m347.95,32.95h.41c-.42,1.44-1.47,2.16-3.15,2.16-1.08,0-1.99-.37-2.73-1.1-.74-.74-1.11-1.71-1.11-2.92s.4-2.25,1.2-3.02c.8-.77,1.74-1.16,2.83-1.16.66,0,1.26.14,1.81.43.55.29.83.64.83,1.05,0,.15-.05.3-.15.44-.1.14-.25.2-.44.2-.41,0-.66-.24-.75-.71-.07-.36-.19-.61-.34-.75-.16-.14-.47-.21-.94-.21-.83,0-1.45.29-1.87.86-.42.58-.63,1.44-.63,2.6s.22,2.13.67,2.8c.45.67,1.13,1.01,2.04,1.01,1.22,0,2-.56,2.34-1.67Z"/>
        <path class="cls-2" d="m349.51,30.99c0-1.16.39-2.14,1.17-2.92.78-.78,1.74-1.17,2.88-1.17s2.11.39,2.89,1.18c.78.79,1.17,1.76,1.17,2.91,0,1.28-.4,2.29-1.19,3.02-.79.73-1.75,1.1-2.87,1.1s-2.07-.37-2.86-1.12c-.79-.75-1.18-1.75-1.18-3Zm1.54.05c0,1.35.22,2.29.66,2.83.44.54,1.05.81,1.85.81s1.43-.27,1.86-.81c.43-.54.64-1.49.64-2.83s-.21-2.29-.64-2.86c-.43-.57-1.05-.85-1.87-.85s-1.43.28-1.86.85c-.43.57-.64,1.52-.64,2.86Z"/>
        <path class="cls-2" d="m367.24,35.1h-.42l-2.26-6.03-2.31,6.03h-.41l-2.32-6.03c-.27-.69-.46-1.1-.59-1.23-.13-.14-.39-.2-.78-.2v-.43h3.47v.43c-.39,0-.66.04-.8.11-.14.07-.21.19-.21.37,0,.12.12.49.36,1.09l1.54,4.07,2.36-6.06h.36l2.28,6.06,1.67-4.31c.18-.46.27-.73.27-.83,0-.3-.31-.47-.94-.49v-.43h2.47v.43c-.3,0-.53.06-.7.17-.17.11-.33.35-.47.73l-.2.54-2.37,6.03Z"/>
        <path class="cls-2" d="m369.72,38.42v-.46c.66-.19,1.17-.53,1.53-1.01.36-.48.55-.96.55-1.44,0-.41-.13-.61-.39-.61-.05,0-.13.02-.24.05-.09.03-.18.05-.26.05-.28,0-.51-.08-.7-.25-.19-.16-.28-.38-.28-.64,0-.28.09-.52.27-.71s.41-.28.7-.28c.44,0,.8.2,1.07.61.28.41.41.88.41,1.42,0,.79-.24,1.48-.72,2.07-.48.59-1.13,1-1.94,1.21Z"/>
        <path class="cls-2" d="m379.28,34.67v-4.04h.46c.53,2.63,1.77,3.95,3.74,3.95.88,0,1.57-.25,2.06-.76.49-.5.73-1.07.73-1.69s-.21-1.16-.64-1.59c-.43-.42-1.21-.87-2.34-1.35-1.01-.43-1.77-.81-2.28-1.14-.51-.33-.91-.75-1.2-1.27-.29-.52-.43-1.07-.43-1.66,0-.9.31-1.64.93-2.24.62-.6,1.41-.9,2.36-.9.53,0,1.03.09,1.5.26.47.17.95.53,1.45,1.08.28-.34.45-.71.48-1.1h.41v3.29h-.41c-.24-.96-.65-1.71-1.25-2.26-.6-.55-1.29-.83-2.07-.83s-1.3.2-1.65.61c-.35.41-.52.85-.52,1.33,0,.58.22,1.07.66,1.48.43.41,1.21.87,2.35,1.37,1.08.48,1.87.87,2.36,1.16.49.29.89.7,1.18,1.22s.45,1.12.45,1.8c0,1.08-.36,1.95-1.08,2.63-.72.67-1.68,1.01-2.88,1.01-1.38,0-2.53-.53-3.45-1.59-.2.29-.36.7-.45,1.22h-.46Z"/>
        <path class="cls-2" d="m391.39,22.05v10.15c0,.81.01,1.32.03,1.53.02.21.11.37.26.48s.43.17.83.17h.22v.43h-4.06v-.43h.26c.37,0,.63-.05.79-.15.16-.1.25-.25.28-.43.03-.19.05-.72.05-1.6v-7.51c0-.8-.07-1.3-.21-1.51-.14-.21-.49-.31-1.04-.31v-.43c.38,0,.82-.04,1.33-.13.51-.09.86-.17,1.05-.26h.2Z"/>
        <path class="cls-2" d="m393.74,30.99c0-1.16.39-2.14,1.17-2.92.78-.78,1.74-1.17,2.88-1.17s2.11.39,2.88,1.18c.78.79,1.17,1.76,1.17,2.91,0,1.28-.4,2.29-1.19,3.02-.79.73-1.75,1.1-2.87,1.1s-2.07-.37-2.86-1.12c-.79-.75-1.18-1.75-1.18-3Zm1.54.05c0,1.35.22,2.29.66,2.83.44.54,1.05.81,1.85.81s1.43-.27,1.86-.81c.43-.54.64-1.49.64-2.83s-.21-2.29-.64-2.86c-.43-.57-1.05-.85-1.86-.85s-1.43.28-1.86.85c-.43.57-.64,1.52-.64,2.86Z"/>
        <path class="cls-2" d="m411.47,35.1h-.42l-2.26-6.03-2.31,6.03h-.41l-2.32-6.03c-.27-.69-.46-1.1-.59-1.23-.13-.14-.39-.2-.78-.2v-.43h3.47v.43c-.39,0-.66.04-.8.11-.14.07-.21.19-.21.37,0,.12.12.49.36,1.09l1.54,4.07,2.36-6.06h.36l2.28,6.06,1.67-4.31c.18-.46.27-.73.27-.83,0-.3-.31-.47-.94-.49v-.43h2.47v.43c-.3,0-.53.06-.7.17-.17.11-.33.35-.47.73l-.2.54-2.37,6.03Z"/>
        <path class="cls-2" d="m433.78,34.8h-3.39c-.6-.42-1.52-1.52-2.76-3.3-.4-.57-.81-1.11-1.23-1.64-.43-.52-.72-.84-.88-.96-.16-.11-.41-.17-.75-.17h-.5v2.79c0,.99.02,1.64.07,1.94.05.31.17.53.37.68s.59.22,1.16.22h.6v.43h-6.02v-.43h.41c.54,0,.91-.07,1.12-.2.21-.14.34-.35.39-.64.06-.29.08-.96.08-2.01v-6.17c0-1-.03-1.65-.08-1.94-.05-.29-.18-.49-.37-.6-.19-.11-.61-.17-1.24-.17h-.21v-.43l1.8-.09c1.2-.06,2.15-.08,2.86-.08,1.2,0,2.18.11,2.93.33.75.22,1.36.59,1.82,1.09.46.51.7,1.11.7,1.82,0,.82-.3,1.52-.91,2.11-.61.58-1.5.94-2.67,1.09.53.25,1.37,1.17,2.54,2.75.95,1.28,1.7,2.12,2.25,2.51.54.4,1.19.61,1.93.63v.43Zm-9.51-6.49c.46-.01.94-.03,1.44-.06.5-.02.92-.09,1.29-.2s.66-.27.89-.49c.23-.21.4-.49.53-.84.13-.35.2-.77.2-1.28,0-.88-.22-1.59-.66-2.12-.44-.53-1.41-.8-2.89-.8-.23,0-.49.01-.79.04v5.75Z"/>
        <path class="cls-2" d="m442.18,33.41h.34c-.05,1.06-.57,1.59-1.56,1.59-.42,0-.75-.11-1-.33s-.4-.55-.48-.99c-.62.44-1.18.77-1.69.99-.51.22-.97.33-1.37.33-.51,0-.96-.15-1.33-.45s-.56-.69-.56-1.18c0-.64.31-1.19.93-1.67.62-.48,1.48-.94,2.58-1.39l1.44-.58v-.37c0-.53-.03-.91-.1-1.14-.07-.23-.25-.45-.53-.63s-.66-.28-1.12-.28c-.93,0-1.44.31-1.55.93-.1.63-.36.95-.78.95-.38,0-.57-.18-.57-.54s.25-.73.75-1.14c.5-.4,1.28-.61,2.34-.61.79,0,1.39.12,1.83.37.43.25.72.53.86.84.14.32.21.8.21,1.45v3.07c0,.72.04,1.18.11,1.38s.24.31.48.31c.41,0,.66-.3.76-.91Zm-2.69-3.25l-1.01.41c-1.6.65-2.39,1.47-2.39,2.45,0,.39.1.7.31.94.2.24.47.36.8.36.29,0,.63-.1,1.01-.29s.81-.48,1.29-.86v-3.01Z"/>
        <path class="cls-2" d="m444.55,35.11h-.36v-10.17c0-.74-.02-1.22-.06-1.44-.04-.22-.14-.38-.31-.48-.16-.1-.45-.16-.86-.16v-.43c.37,0,.8-.04,1.32-.13.51-.09.86-.17,1.05-.26h.19v6.01c.43-.39.87-.68,1.32-.87.45-.19.9-.29,1.35-.29,1.09,0,1.99.38,2.69,1.14s1.05,1.73,1.05,2.91-.36,2.18-1.08,2.97c-.72.79-1.65,1.19-2.79,1.19-.56,0-1.06-.12-1.48-.35-.42-.23-.78-.58-1.06-1.05-.4.4-.73.87-.97,1.4Zm.97-6.5v2.98c0,.77.05,1.32.15,1.66.1.34.35.66.74.97.39.31.84.46,1.36.46.8,0,1.43-.33,1.91-.98.47-.66.71-1.6.71-2.83,0-1.13-.22-1.99-.66-2.58-.44-.59-1.03-.89-1.77-.89-.42,0-.83.1-1.24.3-.41.2-.81.51-1.2.91Z"/>
        <path class="cls-2" d="m454.26,35.11h-.36v-10.17c0-.74-.02-1.22-.06-1.44-.04-.22-.14-.38-.31-.48-.16-.1-.45-.16-.86-.16v-.43c.37,0,.8-.04,1.32-.13.51-.09.86-.17,1.05-.26h.19v6.01c.43-.39.87-.68,1.32-.87.45-.19.9-.29,1.35-.29,1.09,0,1.99.38,2.69,1.14s1.05,1.73,1.05,2.91-.36,2.18-1.08,2.97c-.72.79-1.65,1.19-2.79,1.19-.56,0-1.06-.12-1.48-.35-.42-.23-.78-.58-1.06-1.05-.4.4-.73.87-.97,1.4Zm.97-6.5v2.98c0,.77.05,1.32.15,1.66.1.34.35.66.74.97.39.31.84.46,1.36.46.8,0,1.43-.33,1.91-.98.47-.66.71-1.6.71-2.83,0-1.13-.22-1.99-.66-2.58-.44-.59-1.03-.89-1.77-.89-.42,0-.83.1-1.24.3-.41.2-.81.51-1.2.91Z"/>
        <path class="cls-2" d="m465.4,26.9v5.3c0,.81.01,1.32.04,1.53.02.21.11.37.27.48.16.11.43.17.83.17h.2v.43h-4.09v-.43h.32c.44,0,.72-.06.86-.19.13-.13.21-.28.23-.45.02-.18.03-.69.03-1.54v-2.3c0-.89-.04-1.43-.12-1.63-.08-.2-.19-.32-.33-.37-.14-.05-.38-.07-.73-.07h-.25v-.43c1.1-.11,1.95-.27,2.56-.49h.2Zm-1.79-3.88c0-.27.09-.49.28-.69.19-.19.42-.29.68-.29s.49.1.68.29c.19.19.28.42.28.69s-.09.5-.28.7c-.19.19-.41.29-.68.29s-.49-.1-.68-.29c-.19-.19-.28-.42-.28-.7Z"/>
        <path class="cls-2" d="m472.3,27.63h-2.29v4.59c0,.71.03,1.18.09,1.42.06.24.19.44.39.59s.42.22.65.22c.45,0,.83-.25,1.16-.76l.3.18c-.19.41-.47.72-.85.92-.38.21-.75.31-1.14.31-.45,0-.84-.13-1.17-.39-.34-.26-.55-.57-.63-.92-.08-.35-.12-.97-.12-1.86v-4.3h-1.1v-.43c.51-.01.96-.23,1.36-.64.4-.41.66-1,.77-1.74h.3v2.38h2.29v.43Z"/>
        <path class="cls-2" d="m473.65,38.42v-.46c.66-.19,1.17-.53,1.53-1.01.37-.48.55-.96.55-1.44,0-.41-.13-.61-.39-.61-.05,0-.13.02-.24.05-.09.03-.18.05-.26.05-.28,0-.51-.08-.7-.25-.19-.16-.28-.38-.28-.64,0-.28.09-.52.27-.71.18-.19.41-.28.7-.28.44,0,.8.2,1.07.61.28.41.41.88.41,1.42,0,.79-.24,1.48-.72,2.07-.48.59-1.13,1-1.94,1.21Z"/>
        <path class="cls-2" d="m494.13,30.08h.4v4.41h-.4c-.11-.5-.31-.94-.6-1.33-1.11,1.25-2.52,1.87-4.24,1.87-1.82,0-3.3-.58-4.46-1.73s-1.73-2.67-1.73-4.56c0-1.24.27-2.41.8-3.51.53-1.1,1.27-1.91,2.23-2.44.95-.53,2-.8,3.14-.8.94,0,1.79.19,2.56.58.76.39,1.33.82,1.71,1.29.27-.53.43-1.07.48-1.63h.41l.11,4.77h-.4c-.28-1.69-.85-2.87-1.7-3.53-.86-.66-1.82-.99-2.9-.99-1.32,0-2.36.54-3.14,1.6-.78,1.07-1.16,2.6-1.16,4.59,0,1.89.42,3.33,1.27,4.34.85,1.01,1.9,1.51,3.16,1.51.67,0,1.36-.16,2.07-.49.71-.33,1.26-.88,1.67-1.67.41-.78.65-1.54.73-2.27Z"/>
        <path class="cls-2" d="m496.48,30.99c0-1.16.39-2.14,1.17-2.92.78-.78,1.74-1.17,2.88-1.17s2.11.39,2.88,1.18c.78.79,1.17,1.76,1.17,2.91,0,1.28-.4,2.29-1.19,3.02-.79.73-1.75,1.1-2.87,1.1s-2.07-.37-2.86-1.12c-.79-.75-1.18-1.75-1.18-3Zm1.54.05c0,1.35.22,2.29.66,2.83.44.54,1.05.81,1.85.81s1.43-.27,1.86-.81c.43-.54.64-1.49.64-2.83s-.21-2.29-.64-2.86c-.43-.57-1.05-.85-1.87-.85s-1.43.28-1.86.85c-.43.57-.64,1.52-.64,2.86Z"/>
        <path class="cls-2" d="m507.9,26.9h.25c.14.38.22.91.24,1.57.45-.53.91-.92,1.4-1.18s1-.39,1.53-.39c.61,0,1.1.13,1.49.38.39.25.64.56.75.93.11.37.17.9.17,1.61v2.38c0,.88.02,1.41.05,1.6.03.19.13.34.29.43.16.1.46.14.9.14v.43h-3.89v-.43h.18c.45,0,.74-.06.87-.19s.21-.28.23-.45c.02-.17.03-.68.03-1.53v-2.45c0-.6-.03-1.03-.09-1.28-.06-.26-.22-.48-.47-.68-.26-.2-.58-.3-.98-.3-.45,0-.88.13-1.29.4-.41.27-.8.67-1.17,1.21v3.1c0,.88.02,1.41.05,1.6.03.19.13.34.3.43.16.1.47.14.91.14v.43h-3.84v-.43c.43,0,.72-.04.89-.13.17-.09.27-.22.31-.39.04-.18.06-.73.06-1.66v-2.26c0-.88-.02-1.42-.05-1.61-.03-.19-.13-.33-.3-.43-.16-.1-.47-.14-.91-.14v-.43c.68-.07,1.38-.22,2.09-.43Z"/>
        <path class="cls-2" d="m517.99,26.9h.25c.14.38.22.91.24,1.57.45-.53.91-.92,1.4-1.18s1-.39,1.53-.39c.61,0,1.1.13,1.49.38.39.25.64.56.75.93.11.37.17.9.17,1.61v2.38c0,.88.02,1.41.05,1.6.03.19.13.34.29.43.16.1.46.14.9.14v.43h-3.89v-.43h.18c.45,0,.74-.06.87-.19s.21-.28.23-.45c.02-.17.03-.68.03-1.53v-2.45c0-.6-.03-1.03-.09-1.28-.06-.26-.22-.48-.47-.68-.26-.2-.58-.3-.98-.3-.45,0-.88.13-1.29.4-.41.27-.8.67-1.17,1.21v3.1c0,.88.02,1.41.05,1.6.03.19.13.34.3.43.16.1.47.14.91.14v.43h-3.84v-.43c.43,0,.72-.04.89-.13.17-.09.27-.22.31-.39.04-.18.06-.73.06-1.66v-2.26c0-.88-.02-1.42-.05-1.61-.03-.19-.13-.33-.3-.43-.16-.1-.47-.14-.91-.14v-.43c.68-.07,1.38-.22,2.09-.43Z"/>
        <path class="cls-2" d="m526.17,30.99c0-1.16.39-2.14,1.17-2.92.78-.78,1.74-1.17,2.88-1.17s2.11.39,2.88,1.18c.78.79,1.17,1.76,1.17,2.91,0,1.28-.4,2.29-1.19,3.02-.79.73-1.75,1.1-2.87,1.1s-2.07-.37-2.86-1.12c-.79-.75-1.18-1.75-1.18-3Zm1.54.05c0,1.35.22,2.29.66,2.83.44.54,1.05.81,1.85.81s1.43-.27,1.86-.81c.43-.54.64-1.49.64-2.83s-.21-2.29-.64-2.86c-.43-.57-1.05-.85-1.87-.85s-1.43.28-1.86.85c-.43.57-.64,1.52-.64,2.86Z"/>
        <path class="cls-2" d="m538.13,28.84c.21-.55.55-1.01,1.02-1.38.47-.37.94-.56,1.39-.56.41,0,.73.13.96.38.23.25.35.51.35.78,0,.18-.06.33-.18.46-.12.13-.27.19-.44.19-.31,0-.54-.23-.71-.69-.11-.31-.28-.46-.5-.46-.27,0-.58.18-.96.54-.37.36-.61.74-.71,1.13s-.16.92-.16,1.6v1.35c0,.81,0,1.32.03,1.53.02.21.11.37.26.48.15.11.43.17.83.17h.26v.43h-4.04v-.43h.2c.37,0,.64-.05.79-.15.16-.1.25-.25.28-.43s.05-.72.05-1.6v-2.14c0-.82-.01-1.33-.03-1.54-.02-.21-.11-.37-.26-.48-.16-.11-.43-.17-.83-.17h-.2v-.42c.58-.07,1.34-.25,2.28-.55.18.49.28,1.14.3,1.94Z"/>
        <path class="cls-2" d="m555.46,32.63l4.58-10.41h3.86v.43h-.46c-.62,0-1.02.05-1.22.15-.19.1-.32.29-.38.57-.06.28-.1.94-.1,1.99v6.17c0,.99.03,1.64.07,1.94.05.31.17.53.38.68s.59.22,1.16.22h.56v.43h-6.01v-.43h.45c.53,0,.9-.07,1.11-.2.21-.14.34-.35.4-.64.06-.29.09-.96.09-2.01v-8.01l-4.98,11.28h-.44l-5.02-11.28v7.37c0,1.01.03,1.69.09,2.06.06.37.25.69.57.96.32.28.77.43,1.36.47v.43h-4.5v-.43c.54-.03.98-.18,1.31-.44.34-.26.54-.59.62-.97.07-.38.11-1.09.11-2.13v-5.47c0-1-.03-1.65-.09-1.94-.06-.29-.18-.49-.37-.6-.19-.11-.6-.17-1.24-.17h-.34v-.43h3.83l4.61,10.41Z"/>
        <path class="cls-2" d="m571.53,32.95h.41c-.42,1.44-1.47,2.16-3.15,2.16-1.08,0-1.99-.37-2.73-1.1-.74-.74-1.11-1.71-1.11-2.92s.4-2.25,1.2-3.02c.8-.77,1.74-1.16,2.83-1.16.66,0,1.26.14,1.81.43.55.29.83.64.83,1.05,0,.15-.05.3-.15.44-.1.14-.25.2-.44.2-.41,0-.66-.24-.75-.71-.07-.36-.19-.61-.34-.75-.16-.14-.47-.21-.94-.21-.83,0-1.45.29-1.87.86-.42.58-.63,1.44-.63,2.6s.22,2.13.67,2.8c.45.67,1.13,1.01,2.04,1.01,1.22,0,2-.56,2.34-1.67Z"/>
        <path class="cls-2" d="m572.83,22.32l2.07-.1c1.73-.09,2.89-.13,3.49-.13,1.87,0,3.33.28,4.37.85,1.04.57,1.82,1.34,2.33,2.31.51.97.77,2.1.77,3.37,0,.92-.14,1.76-.42,2.53-.28.76-.66,1.4-1.15,1.9-.49.5-1.05.89-1.69,1.15-.64.26-1.25.43-1.82.49-.58.07-1.39.1-2.43.1h-5.58v-.43h.52c.54,0,.91-.07,1.12-.2.21-.14.34-.35.4-.64.06-.29.09-.96.09-2.01v-6.07c0-1-.03-1.65-.09-1.94-.06-.29-.18-.49-.37-.6-.19-.11-.6-.16-1.24-.16h-.37v-.43Zm3.88.26v8.41c0,1.24.02,2.04.07,2.4.05.36.19.61.42.76.23.15.72.22,1.47.22,1.09,0,1.99-.15,2.7-.45.71-.3,1.29-.89,1.77-1.77.47-.88.71-2,.71-3.37,0-1.06-.14-2.01-.41-2.85-.28-.83-.67-1.51-1.18-2.04-.51-.52-1.08-.88-1.71-1.07-.62-.19-1.42-.28-2.4-.28-.47,0-.95.02-1.43.05Z"/>
        <path class="cls-2" d="m587.53,30.99c0-1.16.39-2.14,1.17-2.92.78-.78,1.74-1.17,2.88-1.17s2.11.39,2.88,1.18c.78.79,1.17,1.76,1.17,2.91,0,1.28-.4,2.29-1.19,3.02-.79.73-1.75,1.1-2.87,1.1s-2.07-.37-2.86-1.12c-.79-.75-1.18-1.75-1.18-3Zm1.54.05c0,1.35.22,2.29.66,2.83.44.54,1.05.81,1.85.81s1.43-.27,1.86-.81c.43-.54.64-1.49.64-2.83s-.21-2.29-.64-2.86c-.43-.57-1.05-.85-1.87-.85s-1.43.28-1.86.85c-.43.57-.64,1.52-.64,2.86Z"/>
        <path class="cls-2" d="m598.94,26.9h.25c.14.38.22.91.24,1.57.45-.53.91-.92,1.4-1.18s1-.39,1.53-.39c.61,0,1.1.13,1.49.38.39.25.64.56.75.93.11.37.17.9.17,1.61v2.38c0,.88.02,1.41.05,1.6.03.19.13.34.29.43.16.1.46.14.9.14v.43h-3.89v-.43h.18c.45,0,.74-.06.87-.19s.21-.28.23-.45c.02-.17.03-.68.03-1.53v-2.45c0-.6-.03-1.03-.09-1.28-.06-.26-.22-.48-.47-.68-.26-.2-.58-.3-.98-.3-.45,0-.88.13-1.29.4-.41.27-.8.67-1.17,1.21v3.1c0,.88.02,1.41.05,1.6.03.19.13.34.3.43.16.1.47.14.91.14v.43h-3.84v-.43c.43,0,.72-.04.89-.13.17-.09.27-.22.31-.39.04-.18.06-.73.06-1.66v-2.26c0-.88-.02-1.42-.05-1.61-.03-.19-.13-.33-.3-.43-.16-.1-.47-.14-.91-.14v-.43c.68-.07,1.38-.22,2.09-.43Z"/>
        <path class="cls-2" d="m607.12,30.99c0-1.16.39-2.14,1.17-2.92.78-.78,1.74-1.17,2.88-1.17s2.11.39,2.88,1.18c.78.79,1.17,1.76,1.17,2.91,0,1.28-.4,2.29-1.19,3.02-.79.73-1.75,1.1-2.87,1.1s-2.07-.37-2.86-1.12c-.79-.75-1.18-1.75-1.18-3Zm1.54.05c0,1.35.22,2.29.66,2.83.44.54,1.05.81,1.85.81s1.43-.27,1.86-.81c.43-.54.64-1.49.64-2.83s-.21-2.29-.64-2.86c-.43-.57-1.05-.85-1.87-.85s-1.43.28-1.86.85c-.43.57-.64,1.52-.64,2.86Z"/>
        <path class="cls-2" d="m624.18,27.2v4.98c0,.83.01,1.35.04,1.56.02.21.12.37.27.47.16.11.44.16.85.16v.43c-.94.01-1.63.11-2.06.3h-.11c-.2-.34-.3-.93-.32-1.76-.38.59-.81,1.03-1.29,1.33s-1.02.45-1.61.45c-.51,0-.96-.12-1.34-.35-.39-.23-.66-.51-.8-.85-.15-.33-.22-.84-.22-1.51v-2.59c0-.88-.01-1.42-.05-1.61-.03-.2-.13-.34-.29-.43-.16-.09-.47-.14-.9-.14v-.43h2.58v5.27c0,.52.03.9.09,1.13.06.24.22.44.47.62.25.18.55.26.88.26.48,0,.93-.16,1.36-.47.43-.31.73-.64.89-.99.16-.35.24-.85.24-1.5v-1.72c0-.83,0-1.33-.03-1.51-.02-.18-.1-.34-.24-.47-.14-.13-.43-.2-.87-.2h-.2v-.43h2.65Z"/>
        <path class="cls-2" d="m632.33,27.87c.53-.59,1.06-.89,1.6-.89.3,0,.53.08.69.24.16.16.25.34.25.53,0,.41-.19.61-.56.61-.2,0-.38-.13-.53-.38-.14-.23-.28-.35-.43-.35-.24,0-.5.16-.78.48.32.51.48,1.05.48,1.61,0,.74-.27,1.4-.8,1.97-.53.58-1.43.88-2.69.93-1.31.04-1.97.31-1.97.8,0,.23.15.39.45.48.29.1.9.17,1.84.22,1.02.05,1.81.14,2.36.28.55.14.99.42,1.32.84.33.42.49.92.49,1.5,0,.82-.33,1.48-1,1.98s-1.63.75-2.88.75c-1.15,0-2.07-.22-2.76-.67s-1.04-1.01-1.04-1.69c0-.38.1-.69.3-.93s.48-.36.84-.36c.1,0,.19.02.27.05-.38.42-.58.87-.58,1.34,0,.54.25.99.77,1.35.51.36,1.27.53,2.29.53.9,0,1.61-.18,2.11-.54.5-.36.76-.82.76-1.39,0-.62-.23-1.05-.68-1.31-.45-.25-1.26-.4-2.41-.45-1.33-.06-2.19-.22-2.59-.49-.4-.27-.59-.61-.59-1.03,0-.81.57-1.32,1.7-1.53-.59-.35-1.03-.74-1.33-1.19s-.45-.94-.45-1.49c0-.77.3-1.43.91-1.97.61-.54,1.33-.81,2.17-.81,1.03,0,1.86.32,2.49.97Zm-4.17,2.02c0,.8.16,1.38.49,1.75.33.37.75.56,1.25.56.47,0,.87-.18,1.21-.55.34-.37.51-1.01.51-1.92s-.18-1.55-.54-1.89c-.36-.35-.76-.52-1.21-.52-.57,0-1,.21-1.28.64s-.43,1.07-.43,1.93Z"/>
        <path class="cls-2" d="m637.82,28.46c.37-.52.79-.91,1.25-1.17.46-.26.97-.39,1.52-.39.62,0,1.14.13,1.55.39s.68.58.8.96c.12.38.19,1,.19,1.85v2.1c0,.89.02,1.43.05,1.62.03.19.13.33.3.42.17.09.48.13.93.13v.43h-3.92v-.43h.18c.45,0,.74-.06.88-.19.13-.13.21-.28.23-.46.02-.18.03-.68.03-1.53v-2.28c0-.63-.04-1.1-.11-1.4-.07-.3-.25-.55-.52-.75-.28-.2-.62-.3-1.04-.3-.48,0-.92.14-1.3.42-.38.28-.72.7-1.01,1.27v3.04c0,.85.01,1.38.04,1.58.03.2.12.35.28.45.16.1.45.15.88.15v.43h-3.86v-.43h.2c.45,0,.73-.06.87-.19.13-.13.21-.28.23-.45.02-.18.03-.69.03-1.54v-7.57c0-.77-.07-1.25-.22-1.46s-.49-.31-1.04-.31v-.43c.96,0,1.76-.13,2.39-.39h.19v6.41Z"/>
        <path class="cls-2" d="m645.85,38.42v-.46c.66-.19,1.17-.53,1.53-1.01.37-.48.55-.96.55-1.44,0-.41-.13-.61-.39-.61-.05,0-.13.02-.24.05-.09.03-.18.05-.26.05-.28,0-.51-.08-.7-.25-.19-.16-.28-.38-.28-.64,0-.28.09-.52.27-.71.18-.19.41-.28.7-.28.44,0,.8.2,1.07.61.28.41.41.88.41,1.42,0,.79-.24,1.48-.72,2.07-.48.59-1.13,1-1.94,1.21Z"/>
        <path class="cls-2" d="m306.07,50.88v2.64c0,.99.02,1.64.07,1.94.05.31.17.53.38.68s.59.22,1.15.22h.42v.43h-5.76v-.43h.33c.54,0,.91-.07,1.12-.2.21-.14.34-.35.39-.64.06-.29.08-.96.08-2.01v-6.17c0-1-.03-1.65-.08-1.94-.06-.29-.18-.49-.37-.6s-.61-.17-1.24-.17h-.23v-.43l1.58-.06c1.26-.04,2.25-.06,2.95-.06,1.3,0,2.3.1,3,.31s1.28.57,1.73,1.09.67,1.18.67,1.97c0,.69-.15,1.29-.46,1.82-.31.53-.75.92-1.32,1.2-.57.27-1.58.41-3.02.41h-1.38Zm0-.46h.9c.72,0,1.31-.07,1.75-.22.45-.15.82-.45,1.11-.91s.45-1.04.45-1.72c0-1.04-.26-1.8-.77-2.29-.51-.49-1.34-.73-2.48-.73-.42,0-.74.01-.96.04v5.83Z"/>
        <path class="cls-2" d="m319.52,50.01v-2.97c0-.81-.01-1.32-.03-1.53-.02-.21-.11-.37-.26-.48-.16-.11-.43-.17-.83-.17h-.19v-.43c.75-.02,1.57-.15,2.46-.39h.2v10.21c0,.88.01,1.42.05,1.61.03.19.13.33.29.43.16.09.47.14.91.14v.43c-.9.02-1.69.1-2.39.24-.07-.29-.11-.75-.11-1.37-.46.46-.93.8-1.42,1.03-.49.23-.99.34-1.51.34-.98,0-1.83-.4-2.55-1.19-.71-.79-1.07-1.75-1.07-2.88,0-1.24.36-2.24,1.09-3,.73-.76,1.6-1.15,2.61-1.15.51,0,1,.09,1.46.28.46.19.89.46,1.3.83Zm0,.54c-.41-.35-.82-.62-1.23-.79-.41-.18-.82-.26-1.24-.26-.7,0-1.28.27-1.75.81s-.7,1.42-.7,2.63.24,2.15.72,2.74c.48.59,1.07.88,1.78.88.47,0,.91-.11,1.31-.33.4-.22.77-.56,1.11-1v-4.67Z"/>
        <path class="cls-2" d="m322.99,52.99c0-1.16.39-2.14,1.17-2.92.78-.78,1.74-1.17,2.88-1.17s2.11.39,2.88,1.18c.78.79,1.17,1.76,1.17,2.91,0,1.28-.4,2.29-1.19,3.02-.79.73-1.75,1.1-2.87,1.1s-2.07-.37-2.86-1.12c-.79-.75-1.18-1.75-1.18-3Zm1.54.05c0,1.35.22,2.29.66,2.83.44.54,1.05.81,1.85.81s1.43-.27,1.86-.81c.43-.54.64-1.49.64-2.83s-.21-2.29-.64-2.86c-.43-.57-1.05-.85-1.86-.85s-1.43.28-1.86.85c-.43.57-.64,1.52-.64,2.86Z"/>
        <path class="cls-2" d="m338.3,49.87c.53-.59,1.06-.89,1.6-.89.3,0,.53.08.69.24.16.16.25.34.25.53,0,.41-.19.61-.56.61-.2,0-.38-.13-.53-.38-.14-.23-.28-.35-.43-.35-.24,0-.5.16-.78.48.32.51.48,1.05.48,1.61,0,.74-.27,1.4-.8,1.97-.53.58-1.43.88-2.69.93-1.31.04-1.97.31-1.97.8,0,.23.15.39.45.48.29.1.9.17,1.84.22,1.02.05,1.81.14,2.36.28.55.14.99.42,1.32.84.33.42.49.92.49,1.5,0,.82-.33,1.48-1,1.98s-1.63.75-2.88.75c-1.15,0-2.07-.22-2.76-.67-.69-.45-1.04-1.01-1.04-1.69,0-.38.1-.69.3-.93.2-.24.48-.36.84-.36.1,0,.19.02.27.05-.38.42-.58.87-.58,1.34,0,.54.25.99.77,1.35.51.36,1.27.53,2.29.53.9,0,1.61-.18,2.11-.54.5-.36.76-.82.76-1.39,0-.62-.23-1.05-.68-1.31-.45-.25-1.26-.4-2.41-.45-1.33-.06-2.19-.22-2.59-.49-.4-.27-.59-.61-.59-1.03,0-.81.57-1.32,1.7-1.53-.59-.35-1.03-.74-1.33-1.19s-.45-.94-.45-1.49c0-.77.3-1.43.91-1.97.61-.54,1.33-.81,2.17-.81,1.03,0,1.86.32,2.49.97Zm-4.17,2.02c0,.8.16,1.38.49,1.75s.75.56,1.25.56c.47,0,.87-.18,1.21-.55.34-.37.5-1.01.5-1.92s-.18-1.55-.54-1.89c-.36-.35-.76-.52-1.21-.52-.57,0-1,.21-1.28.64-.29.43-.43,1.07-.43,1.93Z"/>
        <path class="cls-2" d="m347.39,49.87c.53-.59,1.06-.89,1.6-.89.3,0,.53.08.69.24.16.16.25.34.25.53,0,.41-.19.61-.56.61-.2,0-.38-.13-.53-.38-.14-.23-.28-.35-.43-.35-.24,0-.5.16-.78.48.32.51.48,1.05.48,1.61,0,.74-.27,1.4-.8,1.97-.53.58-1.43.88-2.69.93-1.31.04-1.97.31-1.97.8,0,.23.15.39.45.48.29.1.9.17,1.84.22,1.02.05,1.81.14,2.36.28.55.14.99.42,1.32.84.33.42.49.92.49,1.5,0,.82-.33,1.48-1,1.98s-1.63.75-2.88.75c-1.15,0-2.07-.22-2.76-.67-.69-.45-1.04-1.01-1.04-1.69,0-.38.1-.69.3-.93.2-.24.48-.36.84-.36.1,0,.19.02.27.05-.38.42-.58.87-.58,1.34,0,.54.25.99.77,1.35.51.36,1.27.53,2.29.53.9,0,1.61-.18,2.11-.54.5-.36.76-.82.76-1.39,0-.62-.23-1.05-.68-1.31-.45-.25-1.26-.4-2.41-.45-1.33-.06-2.19-.22-2.59-.49-.4-.27-.59-.61-.59-1.03,0-.81.57-1.32,1.7-1.53-.59-.35-1.03-.74-1.33-1.19s-.45-.94-.45-1.49c0-.77.3-1.43.91-1.97.61-.54,1.33-.81,2.17-.81,1.03,0,1.86.32,2.49.97Zm-4.17,2.02c0,.8.16,1.38.49,1.75s.75.56,1.25.56c.47,0,.87-.18,1.21-.55.34-.37.5-1.01.5-1.92s-.18-1.55-.54-1.89c-.36-.35-.76-.52-1.21-.52-.57,0-1,.21-1.28.64-.29.43-.43,1.07-.43,1.93Z"/>
        <path class="cls-2" d="m350.11,60.42v-.46c.66-.19,1.17-.53,1.53-1.01.36-.48.55-.96.55-1.44,0-.41-.13-.61-.39-.61-.05,0-.13.02-.24.05-.09.03-.18.05-.26.05-.28,0-.51-.08-.7-.25-.19-.16-.28-.38-.28-.64,0-.28.09-.52.27-.71s.41-.28.7-.28c.44,0,.8.2,1.07.61.28.41.41.88.41,1.42,0,.79-.24,1.48-.72,2.07-.48.59-1.13,1-1.94,1.21Z"/>
        <path class="cls-2" d="m367.34,51.43h5.43v.45c-.6,0-1.01.06-1.22.18-.21.12-.35.32-.42.6-.07.28-.1.96-.1,2.05v1.34c-.15-.02-.28-.04-.4-.04-.48,0-1.1.15-1.87.44-1.05.4-2.03.59-2.92.59-1.8,0-3.3-.59-4.49-1.78-1.19-1.18-1.79-2.69-1.79-4.5s.57-3.38,1.71-4.73,2.68-2.03,4.64-2.03c1.68,0,3.07.62,4.17,1.86.2-.43.33-.9.39-1.4h.45v4.2h-.45c-.18-1.29-.67-2.32-1.47-3.07-.8-.75-1.77-1.13-2.92-1.13s-2.21.44-3.09,1.32c-.88.88-1.32,2.44-1.32,4.68s.42,3.81,1.27,4.75c.85.93,1.9,1.4,3.15,1.4.64,0,1.23-.13,1.75-.39.53-.26.88-.58,1.08-.96.19-.38.29-.85.29-1.43,0-.67-.04-1.12-.13-1.35-.09-.23-.23-.38-.41-.46-.19-.08-.53-.12-1.02-.12h-.3v-.45Z"/>
        <path class="cls-2" d="m376.32,50.46c.37-.52.79-.91,1.25-1.17s.97-.39,1.52-.39c.62,0,1.14.13,1.55.39.41.26.68.58.8.96.12.38.19,1,.19,1.85v2.1c0,.89.02,1.43.05,1.62.03.19.13.33.3.42.17.09.48.13.93.13v.43h-3.92v-.43h.18c.45,0,.74-.06.88-.19s.21-.28.23-.46c.02-.18.03-.68.03-1.53v-2.28c0-.63-.04-1.1-.11-1.4-.07-.3-.25-.55-.52-.75-.28-.2-.62-.3-1.03-.3-.48,0-.92.14-1.3.42-.38.28-.72.7-1.01,1.27v3.04c0,.85.01,1.38.04,1.58.03.2.12.35.28.45.16.1.45.15.88.15v.43h-3.86v-.43h.2c.45,0,.73-.06.87-.19.13-.13.21-.28.23-.45.02-.18.03-.69.03-1.54v-7.57c0-.77-.07-1.25-.22-1.46-.14-.2-.49-.31-1.04-.31v-.43c.96,0,1.76-.13,2.39-.39h.19v6.41Z"/>
        <path class="cls-2" d="m384.09,57.04v-2.5h.36c.42,1.44,1.17,2.16,2.25,2.16.47,0,.82-.14,1.05-.43.23-.28.35-.6.35-.94,0-.4-.12-.72-.37-.97-.25-.25-.75-.56-1.47-.92-.77-.38-1.32-.75-1.65-1.11-.33-.36-.5-.8-.5-1.33s.18-.98.54-1.43c.36-.45.86-.68,1.51-.68s1.21.27,1.64.81c.09-.09.21-.32.36-.68h.34v2.35h-.34c-.12-.56-.36-1.05-.72-1.45-.36-.41-.77-.61-1.26-.61-.37,0-.67.11-.9.34-.23.23-.34.5-.34.8,0,.33.13.62.38.86.25.25.72.53,1.42.84,1.05.48,1.69.94,1.93,1.39.23.46.35.9.35,1.32,0,.66-.22,1.2-.65,1.61-.44.41-.99.62-1.65.62-.7,0-1.32-.29-1.87-.86-.17.19-.3.45-.41.8h-.36Z"/>
        <path class="cls-2" d="m394.87,49.63h-2.29v4.59c0,.71.03,1.18.09,1.42.06.24.19.44.39.59s.42.22.64.22c.45,0,.83-.25,1.16-.76l.3.18c-.19.41-.47.72-.85.92-.38.21-.75.31-1.14.31-.45,0-.84-.13-1.17-.39-.34-.26-.55-.57-.63-.92-.08-.35-.12-.97-.12-1.86v-4.3h-1.1v-.43c.51-.01.96-.23,1.36-.64.4-.41.66-1,.77-1.74h.3v2.38h2.29v.43Z"/>
        <path class="cls-2" d="m398.11,44.05v10.15c0,.81.01,1.32.03,1.53.02.21.11.37.26.48s.43.17.83.17h.22v.43h-4.06v-.43h.26c.37,0,.63-.05.79-.15.16-.1.25-.25.28-.43.03-.19.05-.72.05-1.6v-7.51c0-.8-.07-1.3-.21-1.51-.14-.21-.49-.31-1.04-.31v-.43c.38,0,.82-.04,1.33-.13.51-.09.86-.17,1.05-.26h.2Z"/>
        <path class="cls-2" d="m400.45,52.99c0-1.16.39-2.14,1.17-2.92.78-.78,1.74-1.17,2.88-1.17s2.11.39,2.88,1.18c.78.79,1.17,1.76,1.17,2.91,0,1.28-.4,2.29-1.19,3.02-.79.73-1.75,1.1-2.87,1.1s-2.07-.37-2.86-1.12c-.79-.75-1.18-1.75-1.18-3Zm1.54.05c0,1.35.22,2.29.66,2.83.44.54,1.05.81,1.85.81s1.43-.27,1.86-.81c.43-.54.64-1.49.64-2.83s-.21-2.29-.64-2.86c-.43-.57-1.05-.85-1.86-.85s-1.43.28-1.86.85c-.43.57-.64,1.52-.64,2.86Z"/>
        <path class="cls-2" d="m409.95,52.99c0-1.16.39-2.14,1.17-2.92.78-.78,1.74-1.17,2.88-1.17s2.11.39,2.88,1.18c.78.79,1.17,1.76,1.17,2.91,0,1.28-.4,2.29-1.19,3.02-.79.73-1.75,1.1-2.87,1.1s-2.07-.37-2.86-1.12c-.79-.75-1.18-1.75-1.18-3Zm1.54.05c0,1.35.22,2.29.66,2.83.44.54,1.05.81,1.85.81s1.43-.27,1.86-.81c.43-.54.64-1.49.64-2.83s-.21-2.29-.64-2.86c-.43-.57-1.05-.85-1.87-.85s-1.43.28-1.86.85c-.43.57-.64,1.52-.64,2.86Z"/>
        <path class="cls-2" d="m421.1,48.9h.25c.11.35.16.76.16,1.25.4-.42.82-.73,1.28-.94.45-.21.94-.31,1.44-.31,1.05,0,1.93.37,2.63,1.11.7.74,1.05,1.72,1.05,2.93s-.35,2.18-1.05,2.98c-.7.8-1.62,1.2-2.77,1.2-.47,0-.92-.09-1.35-.28-.43-.19-.84-.47-1.22-.84v2.89c0,.88.02,1.41.05,1.6.03.19.13.34.29.43.16.1.46.14.9.14v.43h-3.97v-.43h.28c.44,0,.72-.06.86-.19.13-.13.21-.28.23-.45.02-.18.03-.69.03-1.54v-6.9c0-.81-.01-1.32-.03-1.53-.02-.21-.11-.37-.26-.48s-.43-.17-.83-.17h-.28v-.43c.61-.06,1.39-.22,2.32-.46Zm.41,6.48c.33.41.69.72,1.06.92.37.21.77.31,1.18.31.7,0,1.31-.3,1.83-.9.52-.6.78-1.56.78-2.87,0-1.14-.25-1.99-.75-2.55-.5-.56-1.1-.84-1.79-.84-.43,0-.83.11-1.22.32-.38.22-.75.54-1.09.98v4.62Z"/>
        <path class="cls-2" d="m428.97,60.42v-.46c.66-.19,1.17-.53,1.53-1.01.37-.48.55-.96.55-1.44,0-.41-.13-.61-.39-.61-.05,0-.13.02-.24.05-.09.03-.18.05-.26.05-.28,0-.51-.08-.7-.25-.19-.16-.28-.38-.28-.64,0-.28.09-.52.27-.71.18-.19.41-.28.7-.28.44,0,.8.2,1.07.61.28.41.41.88.41,1.42,0,.79-.24,1.48-.72,2.07-.48.59-1.13,1-1.94,1.21Z"/>
        <path class="cls-2" d="m446.21,51.43h5.43v.45c-.6,0-1.01.06-1.22.18-.21.12-.35.32-.42.6-.07.28-.1.96-.1,2.05v1.34c-.15-.02-.28-.04-.4-.04-.48,0-1.1.15-1.87.44-1.05.4-2.03.59-2.92.59-1.8,0-3.3-.59-4.49-1.78-1.19-1.18-1.79-2.69-1.79-4.5s.57-3.38,1.71-4.73c1.14-1.35,2.68-2.03,4.64-2.03,1.68,0,3.07.62,4.17,1.86.21-.43.33-.9.39-1.4h.45v4.2h-.45c-.18-1.29-.67-2.32-1.47-3.07-.8-.75-1.77-1.13-2.92-1.13s-2.21.44-3.09,1.32c-.88.88-1.32,2.44-1.32,4.68s.42,3.81,1.27,4.75c.85.93,1.9,1.4,3.15,1.4.64,0,1.23-.13,1.75-.39.53-.26.88-.58,1.08-.96.19-.38.29-.85.29-1.43,0-.67-.04-1.12-.13-1.35-.09-.23-.23-.38-.41-.46-.19-.08-.53-.12-1.02-.12h-.3v-.45Z"/>
        <path class="cls-2" d="m459.68,51.77h-5.3c-.02.37-.04.64-.04.82,0,1.34.21,2.34.63,3.01.42.67,1.04,1.01,1.87,1.01,1.13,0,1.92-.5,2.39-1.51h.45c-.2.63-.59,1.12-1.18,1.48-.59.36-1.23.53-1.92.53-.64,0-1.25-.16-1.82-.49-.57-.33-1.04-.78-1.41-1.38s-.55-1.31-.55-2.16c0-1.2.35-2.2,1.06-2.99.71-.79,1.59-1.19,2.64-1.19,1,0,1.77.3,2.31.91.54.61.83,1.26.86,1.97Zm-1.62-.37c.02-.14.03-.27.03-.38,0-.54-.16-.97-.48-1.27-.32-.3-.71-.45-1.17-.45-1.13,0-1.8.7-2.01,2.1h3.64Z"/>
        <path class="cls-2" d="m463.02,48.9h.25c.14.38.22.91.24,1.57.45-.53.91-.92,1.4-1.18s1-.39,1.53-.39c.61,0,1.1.13,1.49.38.39.25.64.56.75.93.11.37.17.9.17,1.61v2.38c0,.88.02,1.41.05,1.6.03.19.13.34.29.43.16.1.46.14.9.14v.43h-3.89v-.43h.18c.45,0,.74-.06.87-.19s.21-.28.23-.45c.02-.17.03-.68.03-1.53v-2.45c0-.6-.03-1.03-.09-1.28-.06-.26-.22-.48-.47-.68-.26-.2-.58-.3-.98-.3-.45,0-.88.13-1.29.4-.41.27-.8.67-1.17,1.21v3.1c0,.88.02,1.41.05,1.6.03.19.13.34.3.43.16.1.47.14.91.14v.43h-3.84v-.43c.43,0,.72-.04.89-.13.17-.09.27-.22.31-.39.04-.18.06-.73.06-1.66v-2.26c0-.88-.02-1.42-.05-1.61-.03-.19-.13-.33-.3-.43-.16-.1-.47-.14-.91-.14v-.43c.68-.07,1.38-.22,2.09-.43Z"/>
        <path class="cls-2" d="m486.95,57.09l-8.9-11.79v8.73c0,.72.04,1.2.11,1.43.07.23.27.44.61.63.33.19.84.29,1.5.29v.43h-4.7v-.43c.6-.04,1.06-.15,1.37-.33.32-.18.5-.37.56-.57s.09-.69.09-1.45v-6.67c0-.96-.05-1.61-.13-1.94-.09-.33-.23-.54-.43-.63-.2-.09-.63-.14-1.3-.14v-.43h3.71l7.45,9.84v-7.52c0-.56-.06-.95-.17-1.17-.12-.22-.35-.4-.7-.53-.35-.13-.78-.19-1.27-.19v-.43h4.56v.43c-.53.04-.95.15-1.26.31-.31.16-.5.35-.58.58-.08.23-.12.61-.12,1.15v10.41h-.4Z"/>
        <path class="cls-2" d="m497.09,51.77h-5.3c-.02.37-.04.64-.04.82,0,1.34.21,2.34.63,3.01.42.67,1.04,1.01,1.87,1.01,1.13,0,1.92-.5,2.39-1.51h.45c-.2.63-.59,1.12-1.18,1.48-.59.36-1.23.53-1.92.53-.64,0-1.25-.16-1.82-.49-.57-.33-1.04-.78-1.41-1.38s-.55-1.31-.55-2.16c0-1.2.35-2.2,1.06-2.99.71-.79,1.59-1.19,2.64-1.19,1,0,1.77.3,2.31.91.54.61.83,1.26.86,1.97Zm-1.62-.37c.02-.14.03-.27.03-.38,0-.54-.16-.97-.48-1.27-.32-.3-.71-.45-1.17-.45-1.13,0-1.8.7-2.01,2.1h3.64Z"/>
        <path class="cls-2" d="m498.52,52.99c0-1.16.39-2.14,1.17-2.92.78-.78,1.74-1.17,2.88-1.17s2.11.39,2.88,1.18c.78.79,1.17,1.76,1.17,2.91,0,1.28-.4,2.29-1.19,3.02-.79.73-1.75,1.1-2.87,1.1s-2.07-.37-2.86-1.12c-.79-.75-1.18-1.75-1.18-3Zm1.54.05c0,1.35.22,2.29.66,2.83.44.54,1.05.81,1.85.81s1.43-.27,1.86-.81c.43-.54.64-1.49.64-2.83s-.21-2.29-.64-2.86c-.43-.57-1.05-.85-1.87-.85s-1.43.28-1.86.85c-.43.57-.64,1.52-.64,2.86Z"/>
        <path class="cls-2" d="m507.98,60.42v-.46c.66-.19,1.17-.53,1.53-1.01.37-.48.55-.96.55-1.44,0-.41-.13-.61-.39-.61-.05,0-.13.02-.24.05-.09.03-.18.05-.26.05-.28,0-.51-.08-.7-.25-.19-.16-.28-.38-.28-.64,0-.28.09-.52.27-.71.18-.19.41-.28.7-.28.44,0,.8.2,1.07.61.28.41.41.88.41,1.42,0,.79-.24,1.48-.72,2.07-.48.59-1.13,1-1.94,1.21Z"/>
        <path class="cls-2" d="m517.54,56.67v-4.04h.46c.53,2.63,1.77,3.95,3.74,3.95.88,0,1.57-.25,2.06-.76.49-.5.73-1.07.73-1.69s-.21-1.16-.64-1.59c-.43-.42-1.21-.87-2.34-1.35-1.01-.43-1.77-.81-2.28-1.14-.51-.33-.91-.75-1.2-1.27-.29-.52-.43-1.07-.43-1.66,0-.9.31-1.64.93-2.24.62-.6,1.41-.9,2.36-.9.53,0,1.03.09,1.5.26.47.17.95.53,1.45,1.08.28-.34.45-.71.48-1.1h.41v3.29h-.41c-.24-.96-.65-1.71-1.25-2.26-.6-.55-1.29-.83-2.07-.83s-1.3.2-1.65.61c-.35.41-.52.85-.52,1.33,0,.58.22,1.07.66,1.48.43.41,1.21.87,2.35,1.37,1.08.48,1.87.87,2.36,1.16.49.29.89.7,1.18,1.22s.45,1.12.45,1.8c0,1.08-.36,1.95-1.08,2.63-.72.67-1.68,1.01-2.88,1.01-1.38,0-2.53-.53-3.45-1.59-.21.29-.36.7-.46,1.22h-.46Z"/>
        <path class="cls-2" d="m529.08,48.9h.25c.11.35.16.76.16,1.25.4-.42.82-.73,1.28-.94.45-.21.94-.31,1.44-.31,1.05,0,1.93.37,2.63,1.11.7.74,1.05,1.72,1.05,2.93s-.35,2.18-1.05,2.98c-.7.8-1.62,1.2-2.77,1.2-.47,0-.92-.09-1.35-.28-.43-.19-.84-.47-1.22-.84v2.89c0,.88.02,1.41.05,1.6.03.19.13.34.29.43.16.1.46.14.9.14v.43h-3.97v-.43h.28c.44,0,.72-.06.86-.19.13-.13.21-.28.23-.45.02-.18.03-.69.03-1.54v-6.9c0-.81-.01-1.32-.03-1.53-.02-.21-.11-.37-.26-.48s-.43-.17-.83-.17h-.28v-.43c.61-.06,1.39-.22,2.32-.46Zm.41,6.48c.33.41.69.72,1.06.92.37.21.77.31,1.18.31.7,0,1.31-.3,1.83-.9.52-.6.78-1.56.78-2.87,0-1.14-.25-1.99-.75-2.55-.5-.56-1.1-.84-1.79-.84-.43,0-.83.11-1.22.32-.38.22-.75.54-1.09.98v4.62Z"/>
        <path class="cls-2" d="m545,55.41h.34c-.05,1.06-.57,1.59-1.56,1.59-.42,0-.75-.11-1-.33s-.4-.55-.48-.99c-.62.44-1.18.77-1.69.99-.51.22-.97.33-1.37.33-.51,0-.96-.15-1.33-.45s-.56-.69-.56-1.18c0-.64.31-1.19.93-1.67.62-.48,1.48-.94,2.58-1.39l1.44-.58v-.37c0-.53-.03-.91-.1-1.14-.07-.23-.25-.45-.53-.63s-.66-.28-1.12-.28c-.93,0-1.44.31-1.55.93-.1.63-.36.95-.78.95-.38,0-.57-.18-.57-.54s.25-.73.75-1.14c.5-.4,1.28-.61,2.34-.61.79,0,1.39.12,1.83.37.43.25.72.53.86.84.14.32.21.8.21,1.45v3.07c0,.72.04,1.18.11,1.38s.24.31.48.31c.41,0,.66-.3.76-.91Zm-2.69-3.25l-1.01.41c-1.6.65-2.39,1.47-2.39,2.45,0,.39.1.7.31.94.2.24.47.36.8.36.29,0,.63-.1,1.01-.29s.81-.48,1.29-.86v-3.01Z"/>
        <path class="cls-2" d="m552.81,54.95h.41c-.42,1.44-1.47,2.16-3.15,2.16-1.08,0-1.99-.37-2.73-1.1-.74-.74-1.11-1.71-1.11-2.92s.4-2.25,1.2-3.02c.8-.77,1.74-1.16,2.83-1.16.66,0,1.26.14,1.81.43.55.29.83.64.83,1.05,0,.15-.05.3-.15.44-.1.14-.25.2-.44.2-.41,0-.66-.24-.75-.71-.07-.36-.19-.61-.34-.75-.16-.14-.47-.21-.94-.21-.83,0-1.45.29-1.87.86-.42.58-.63,1.44-.63,2.6s.22,2.13.67,2.8c.45.67,1.13,1.01,2.04,1.01,1.22,0,2-.56,2.34-1.67Z"/>
        <path class="cls-2" d="m561.25,51.77h-5.3c-.02.37-.04.64-.04.82,0,1.34.21,2.34.63,3.01.42.67,1.04,1.01,1.87,1.01,1.13,0,1.92-.5,2.39-1.51h.45c-.2.63-.59,1.12-1.18,1.48-.59.36-1.23.53-1.92.53-.64,0-1.25-.16-1.82-.49-.57-.33-1.04-.78-1.41-1.38s-.55-1.31-.55-2.16c0-1.2.35-2.2,1.06-2.99.71-.79,1.59-1.19,2.64-1.19,1,0,1.77.3,2.31.91.54.61.83,1.26.86,1.97Zm-1.62-.37c.02-.14.03-.27.03-.38,0-.54-.16-.97-.48-1.27-.32-.3-.71-.45-1.17-.45-1.13,0-1.8.7-2.01,2.1h3.64Z"/>
        <path class="cls-2" d="m571.09,50.88v2.64c0,.99.02,1.64.07,1.94.05.31.17.53.38.68.21.15.59.22,1.15.22h.42v.43h-5.76v-.43h.33c.54,0,.91-.07,1.12-.2.21-.14.34-.35.39-.64.06-.29.08-.96.08-2.01v-6.17c0-1-.03-1.65-.08-1.94-.06-.29-.18-.49-.37-.6s-.61-.17-1.24-.17h-.23v-.43l1.58-.06c1.26-.04,2.24-.06,2.95-.06,1.3,0,2.3.1,3,.31.7.2,1.28.57,1.73,1.09.45.52.67,1.18.67,1.97,0,.69-.15,1.29-.46,1.82-.31.53-.75.92-1.32,1.2-.57.27-1.58.41-3.02.41h-1.38Zm0-.46h.9c.72,0,1.31-.07,1.75-.22.45-.15.82-.45,1.11-.91s.45-1.04.45-1.72c0-1.04-.26-1.8-.77-2.29-.51-.49-1.34-.73-2.48-.73-.42,0-.74.01-.96.04v5.83Z"/>
        <path class="cls-2" d="m580.57,50.84c.21-.55.55-1.01,1.02-1.38.47-.37.94-.56,1.39-.56.41,0,.73.13.96.38.23.25.35.51.35.78,0,.18-.06.33-.18.46-.12.13-.27.19-.44.19-.31,0-.54-.23-.71-.69-.11-.31-.28-.46-.5-.46-.27,0-.58.18-.96.54-.37.36-.61.74-.71,1.13s-.16.92-.16,1.6v1.35c0,.81,0,1.32.03,1.53.02.21.11.37.26.48.15.11.43.17.83.17h.26v.43h-4.04v-.43h.2c.37,0,.64-.05.79-.15.16-.1.25-.25.28-.43s.05-.72.05-1.6v-2.14c0-.82-.01-1.33-.03-1.54-.02-.21-.11-.37-.26-.48-.16-.11-.43-.17-.83-.17h-.2v-.42c.58-.07,1.34-.25,2.28-.55.18.49.28,1.14.3,1.94Z"/>
        <path class="cls-2" d="m587.4,48.9v5.3c0,.81.01,1.32.04,1.53.02.21.11.37.27.48.16.11.43.17.83.17h.2v.43h-4.09v-.43h.32c.44,0,.72-.06.86-.19.13-.13.21-.28.23-.45.02-.18.03-.69.03-1.54v-2.3c0-.89-.04-1.43-.12-1.63-.08-.2-.19-.32-.33-.37-.14-.05-.38-.07-.73-.07h-.25v-.43c1.1-.11,1.95-.27,2.56-.49h.2Zm-1.79-3.88c0-.27.09-.49.28-.69.19-.19.42-.29.68-.29s.49.1.68.29c.19.19.28.42.28.69s-.09.5-.28.7c-.19.19-.41.29-.68.29s-.49-.1-.68-.29c-.19-.19-.28-.42-.28-.7Z"/>
        <path class="cls-2" d="m591.75,48.9h.09c.18.41.27.95.27,1.6.41-.53.86-.93,1.34-1.2.48-.27.99-.4,1.54-.4.62,0,1.13.14,1.52.43.39.28.66.71.82,1.28.47-.57.95-1,1.45-1.28.49-.28,1-.43,1.51-.43.59,0,1.09.14,1.49.41.41.27.66.58.74.93.09.35.13.91.13,1.68v2.28c0,.88.02,1.42.05,1.61.03.19.13.33.3.43.16.09.47.14.91.14v.43h-3.79v-.43c.4,0,.68-.04.85-.13.16-.09.26-.23.3-.41.04-.18.06-.73.06-1.64v-2.53c0-.51-.03-.9-.09-1.16-.06-.26-.21-.48-.46-.67-.25-.19-.57-.28-.96-.28s-.81.14-1.21.41c-.41.27-.81.68-1.22,1.23v3c0,.81.01,1.32.03,1.53.02.21.11.37.26.48.15.11.42.17.81.17v.43h-3.67v-.43c.41,0,.7-.04.87-.13.16-.09.27-.22.31-.4.04-.18.06-.73.06-1.65v-2.11c0-.67-.03-1.15-.08-1.45-.05-.3-.21-.56-.48-.77-.27-.21-.6-.32-.99-.32s-.77.12-1.17.37c-.4.25-.81.62-1.22,1.11v3.16c0,.83.01,1.35.04,1.56s.12.36.28.46c.16.11.45.16.86.16v.43h-3.72v-.43c.41,0,.69-.04.86-.13.16-.09.26-.22.3-.4.04-.18.05-.73.05-1.64v-2.27c0-.87-.01-1.4-.04-1.59-.03-.2-.12-.34-.29-.44-.16-.1-.46-.15-.89-.15v-.43c.88-.09,1.61-.23,2.18-.42Z"/>
        <path class="cls-2" d="m612.7,55.41h.34c-.05,1.06-.57,1.59-1.56,1.59-.42,0-.75-.11-1-.33s-.4-.55-.48-.99c-.62.44-1.18.77-1.69.99-.51.22-.97.33-1.37.33-.51,0-.96-.15-1.33-.45s-.56-.69-.56-1.18c0-.64.31-1.19.93-1.67.62-.48,1.48-.94,2.58-1.39l1.44-.58v-.37c0-.53-.03-.91-.1-1.14-.07-.23-.25-.45-.53-.63s-.66-.28-1.12-.28c-.93,0-1.44.31-1.55.93-.1.63-.36.95-.78.95-.38,0-.57-.18-.57-.54s.25-.73.75-1.14c.5-.4,1.28-.61,2.34-.61.79,0,1.39.12,1.83.37.43.25.72.53.86.84.14.32.21.8.21,1.45v3.07c0,.72.04,1.18.11,1.38s.24.31.48.31c.41,0,.66-.3.76-.91Zm-2.69-3.25l-1.01.41c-1.6.65-2.39,1.47-2.39,2.45,0,.39.1.7.31.94.2.24.47.36.8.36.29,0,.63-.1,1.01-.29s.81-.48,1.29-.86v-3.01Z"/>
        <path class="cls-2" d="m618.27,49.63h-2.29v4.59c0,.71.03,1.18.09,1.42.06.24.19.44.39.59s.42.22.65.22c.45,0,.83-.25,1.16-.76l.3.18c-.19.41-.47.72-.85.92-.38.21-.75.31-1.14.31-.45,0-.84-.13-1.17-.39-.34-.26-.55-.57-.63-.92-.08-.35-.12-.97-.12-1.86v-4.3h-1.1v-.43c.51-.01.96-.23,1.36-.64.4-.41.66-1,.77-1.74h.3v2.38h2.29v.43Z"/>
        <path class="cls-2" d="m626.18,51.77h-5.3c-.02.37-.04.64-.04.82,0,1.34.21,2.34.63,3.01.42.67,1.04,1.01,1.87,1.01,1.13,0,1.92-.5,2.39-1.51h.45c-.2.63-.59,1.12-1.18,1.48-.59.36-1.23.53-1.92.53-.64,0-1.25-.16-1.82-.49-.57-.33-1.04-.78-1.41-1.38s-.55-1.31-.55-2.16c0-1.2.35-2.2,1.06-2.99.71-.79,1.59-1.19,2.64-1.19,1,0,1.77.3,2.31.91.54.61.83,1.26.86,1.97Zm-1.62-.37c.02-.14.03-.27.03-.38,0-.54-.16-.97-.48-1.27-.32-.3-.71-.45-1.17-.45-1.13,0-1.8.7-2.01,2.1h3.64Z"/>
        <path class="cls-2" d="m627.67,57.04v-2.5h.36c.42,1.44,1.17,2.16,2.25,2.16.47,0,.82-.14,1.05-.43.23-.28.35-.6.35-.94,0-.4-.12-.72-.37-.97-.25-.25-.75-.56-1.47-.92-.77-.38-1.32-.75-1.65-1.11-.33-.36-.5-.8-.5-1.33s.18-.98.54-1.43c.36-.45.86-.68,1.51-.68s1.21.27,1.64.81c.09-.09.21-.32.36-.68h.34v2.35h-.34c-.12-.56-.36-1.05-.72-1.45-.36-.41-.77-.61-1.26-.61-.37,0-.67.11-.9.34-.23.23-.34.5-.34.8,0,.33.13.62.38.86.25.25.72.53,1.42.84,1.05.48,1.69.94,1.93,1.39.23.46.35.9.35,1.32,0,.66-.22,1.2-.65,1.61-.44.41-.99.62-1.65.62-.7,0-1.32-.29-1.86-.86-.17.19-.3.45-.41.8h-.36Z"/>
      </g>
      <g>
        <path class="cls-2" d="m16.25,18.5h-3.37c-.12-.14-.28-.33-.46-.59s-.38-.56-.6-.91c-.22-.35-.4-.64-.54-.87l-.85-1.41c-.38-.63-.67-1.06-.87-1.29-.19-.23-.42-.38-.67-.45-.25-.07-.68-.1-1.28-.1h-.47v3.28c0,.35.04.62.11.83.07.21.25.37.52.48s.68.17,1.2.17v.85H2.68v-.85c.77,0,1.26-.11,1.48-.33.22-.22.33-.61.33-1.15v-7.94c0-.54-.11-.92-.32-1.15-.21-.23-.71-.34-1.49-.34v-.87l2.91-.09c.22-.01.48-.02.77-.03.29,0,.56,0,.8,0,.19,0,.51,0,.96.02.62.02,1.21.06,1.75.11s.97.13,1.29.21c.46.12.91.31,1.32.58.42.27.76.63,1.02,1.08s.39.96.39,1.55c0,.42-.09.83-.27,1.22-.18.4-.48.75-.88,1.06-.41.31-.94.55-1.6.73.45.27.83.6,1.15.99.31.39.81,1.11,1.48,2.17.39.6.71,1.05.96,1.36.25.31.49.51.7.62.21.11.48.18.81.21v.85Zm-5.21-9.23c0-1-.3-1.67-.91-1.99-.61-.33-1.41-.49-2.39-.49-.14,0-.24,0-.32,0-.08,0-.17,0-.26,0v5.06h.58c.93,0,1.72-.15,2.35-.45.63-.3.95-1.01.95-2.12Z"/>
        <path class="cls-2" d="m24.94,14.42h-5.71c0,.12.02.37.05.75.03.38.11.78.26,1.18.15.4.4.74.75,1.02.36.28.83.41,1.43.41.33,0,.72-.08,1.19-.25.46-.17.87-.49,1.21-.96l.72.49c-.73,1.17-1.89,1.75-3.48,1.75-.71,0-1.36-.1-1.94-.31-.58-.2-1.08-.49-1.49-.85-.41-.36-.72-.79-.94-1.29-.22-.49-.33-1.03-.33-1.6,0-.75.18-1.44.54-2.08.36-.64.88-1.14,1.55-1.52.67-.38,1.44-.57,2.31-.57s1.56.18,2.15.55c.58.37,1.02.84,1.29,1.42.28.58.42,1.2.42,1.86Zm-2.3-.85c0-1.41-.56-2.12-1.67-2.12-.54,0-.95.19-1.24.58-.29.39-.45.9-.48,1.53h3.39Z"/>
        <path class="cls-2" d="m31.18,18.5h-5.33v-.85h.4c.36,0,.62-.05.78-.15.16-.1.26-.24.3-.42.04-.18.06-.44.06-.79v-7.9c0-.45-.1-.73-.31-.85-.21-.12-.62-.19-1.23-.19v-.85l3.93-.8v10.59c0,.35.02.61.05.78.03.18.13.32.3.42.16.1.42.15.78.15h.27v.85Z"/>
        <path class="cls-2" d="m40.57,14.42h-5.71c0,.12.02.37.05.75.03.38.11.78.26,1.18.15.4.4.74.75,1.02.36.28.83.41,1.43.41.33,0,.72-.08,1.19-.25.46-.17.87-.49,1.21-.96l.72.49c-.73,1.17-1.89,1.75-3.48,1.75-.71,0-1.36-.1-1.94-.31-.58-.2-1.08-.49-1.49-.85-.41-.36-.72-.79-.94-1.29-.22-.49-.33-1.03-.33-1.6,0-.75.18-1.44.54-2.08.36-.64.88-1.14,1.55-1.52.67-.38,1.44-.57,2.31-.57s1.56.18,2.15.55c.58.37,1.02.84,1.29,1.42.28.58.42,1.2.42,1.86Zm-2.3-.85c0-1.41-.56-2.12-1.67-2.12-.54,0-.95.19-1.24.58-.29.39-.45.9-.48,1.53h3.39Z"/>
        <path class="cls-2" d="m51.53,16.54c0,.47-.1.87-.29,1.2-.19.33-.45.58-.77.73-.32.16-.69.24-1.1.24-.52,0-.95-.12-1.3-.37-.35-.24-.55-.54-.62-.88-1.03.83-2.07,1.24-3.12,1.24-.67,0-1.22-.16-1.64-.49-.43-.33-.64-.75-.64-1.29,0-.44.11-.84.34-1.19.23-.36.56-.67,1.01-.95s.97-.52,1.58-.74c.61-.21,1.38-.44,2.29-.67v-.53c0-.44-.1-.78-.31-1.03-.21-.25-.59-.38-1.15-.38-.48,0-.82.1-1.03.3-.21.2-.35.5-.42.9-.05.28-.14.52-.27.7-.13.18-.41.27-.83.27-.26,0-.49-.07-.69-.22-.2-.15-.3-.37-.3-.66,0-.58.31-1.08.94-1.5s1.58-.64,2.88-.64c1.36,0,2.3.23,2.81.69.51.46.77,1.07.77,1.84v2.93c0,.37,0,.64.03.82.02.17.07.3.15.39.08.09.21.13.39.13.16,0,.3-.08.42-.25.12-.17.18-.37.18-.6h.69Zm-4.26.07v-2.3c-1.17.37-1.92.73-2.24,1.09-.32.36-.48.7-.48,1.04,0,.28.09.51.26.69.17.17.42.26.73.26.34,0,.64-.07.9-.21.26-.14.54-.33.83-.57Z"/>
        <path class="cls-2" d="m60.01,16.29c0,.53-.16.99-.48,1.36-.32.38-.75.66-1.31.86-.55.2-1.19.29-1.92.29-.49,0-.98-.05-1.47-.14-.5-.1-.93-.24-1.3-.43l-.36.52h-.72l-.09-2.41h.78c.14.41.45.79.94,1.12.49.33,1.2.5,2.12.5.24,0,.49-.02.76-.05.27-.03.53-.13.78-.28.25-.15.38-.39.38-.71,0-.28-.13-.48-.38-.61-.26-.13-.74-.28-1.44-.46-.85-.22-1.55-.42-2.1-.62-.54-.2-1-.47-1.38-.84-.38-.36-.57-.83-.57-1.41,0-.73.33-1.31,1.01-1.73.67-.43,1.55-.64,2.64-.64.68,0,1.22.06,1.63.17s.75.23,1.03.36l.22-.47h.74v2.15h-.76c-.07-.25-.22-.49-.46-.7-.24-.21-.56-.37-.96-.49-.4-.11-.86-.17-1.39-.17-.43,0-.87.05-1.29.14s-.64.31-.64.66c0,.14.04.26.12.35.08.09.23.18.43.26.2.08.56.19,1.08.32s.82.21.92.23c1.01.25,1.84.57,2.48.94.65.37.97,1.02.97,1.95Z"/>
        <path class="cls-2" d="m69.65,14.42h-5.71c0,.12.02.37.05.75.03.38.11.78.26,1.18.15.4.4.74.75,1.02.36.28.83.41,1.43.41.33,0,.72-.08,1.19-.25.46-.17.87-.49,1.21-.96l.72.49c-.73,1.17-1.89,1.75-3.48,1.75-.71,0-1.36-.1-1.94-.31-.58-.2-1.08-.49-1.49-.85-.41-.36-.72-.79-.94-1.29-.22-.49-.33-1.03-.33-1.6,0-.75.18-1.44.54-2.08.36-.64.88-1.14,1.55-1.52.67-.38,1.44-.57,2.31-.57s1.56.18,2.15.55c.58.37,1.02.84,1.29,1.42.28.58.42,1.2.42,1.86Zm-2.3-.85c0-1.41-.56-2.12-1.67-2.12-.54,0-.95.19-1.24.58-.29.39-.45.9-.48,1.53h3.39Z"/>
        <path class="cls-2" d="m81.54,18.39c-1.31.06-2.51.19-3.59.42-.09-.19-.14-.51-.17-.97-.79.65-1.66.97-2.61.97-.73,0-1.41-.19-2.03-.57-.62-.38-1.12-.89-1.48-1.54-.37-.65-.55-1.36-.55-2.13,0-.48.08-.95.24-1.42.16-.47.41-.9.76-1.29.34-.39.77-.7,1.28-.92.51-.22,1.09-.33,1.74-.33.48,0,.88.06,1.22.18.34.12.61.25.82.4.2.15.41.33.62.54v-3.04c0-.41-.03-.71-.1-.89-.07-.18-.2-.29-.38-.34-.19-.05-.5-.08-.92-.09v-.85l3.8-.8v10.39c0,.45.02.75.06.93.04.17.15.3.34.38.19.08.51.12.96.14v.85Zm-3.76-1.75v-3.76c-.26-.32-.57-.6-.93-.86-.36-.26-.79-.39-1.28-.39-.3,0-.59.08-.85.25-.27.17-.48.38-.64.64-.27.43-.41,1.15-.41,2.16s.19,1.8.58,2.32c.39.52.87.78,1.44.78.41,0,.8-.1,1.16-.31.36-.2.67-.48.93-.83Z"/>
        <path class="cls-2" d="m96.46,14.68c0,.84-.21,1.57-.61,2.2-.41.62-.96,1.1-1.66,1.43-.7.33-1.46.5-2.29.5-.78,0-1.52-.15-2.21-.45-.7-.3-1.26-.76-1.71-1.38-.44-.62-.66-1.38-.66-2.27,0-1.34.46-2.36,1.37-3.06.92-.7,2-1.04,3.27-1.04.94,0,1.75.19,2.43.56s1.2.87,1.54,1.49c.35.62.52,1.3.52,2.03Zm-2.56-.06c0-1.05-.14-1.84-.42-2.38-.28-.53-.82-.8-1.62-.8-.51,0-.91.12-1.2.35-.29.23-.49.59-.6,1.08-.12.49-.17,1.12-.17,1.89,0,.95.13,1.72.38,2.31.25.59.81.88,1.66.88.56,0,.99-.16,1.29-.49.29-.33.48-.73.57-1.21.08-.48.13-1.03.13-1.64Z"/>
        <path class="cls-2" d="m108.18,18.5h-4.81v-.85c.37,0,.63-.05.78-.14.16-.1.25-.24.29-.42s.06-.49.06-.92v-2.63c0-.53-.08-.94-.23-1.25-.15-.31-.47-.46-.95-.46-.65,0-1.13.25-1.45.75-.32.5-.48,1.07-.48,1.72v2.08c0,.49.07.82.21,1,.14.18.45.27.92.27v.85h-4.9v-.85c.4,0,.7-.04.89-.11.19-.07.32-.2.38-.38.06-.18.09-.47.09-.87v-3c0-.43-.08-.72-.25-.85-.17-.13-.54-.2-1.11-.2v-.85l3.61-.8c.06.36.08.69.08,1,0,.08,0,.15,0,.21,0,.06,0,.12,0,.2.39-.41.79-.75,1.21-1.02.42-.26.95-.39,1.58-.39.53,0,1.01.1,1.43.29.42.19.76.48,1,.87.24.39.36.86.36,1.41v3.13c0,.52.07.88.21,1.07.14.19.5.29,1.07.29v.85Z"/>
        <path class="cls-2" d="m114.36,18.5v-.58c.71-.55,1.6-1.42,2.68-2.61,1.08-1.19,1.86-2.22,2.33-3.08.48-.87.71-1.74.71-2.63,0-1.06-.24-1.84-.72-2.33-.48-.5-1.08-.75-1.8-.75s-1.25.23-1.64.69c-.39.46-.58.95-.58,1.47,0,.59.25,1.06.75,1.41.19.13.28.23.28.3,0,.11-.11.26-.32.45-.21.19-.38.29-.52.29-.19,0-.41-.19-.67-.56-.26-.37-.39-.85-.39-1.44,0-.95.37-1.7,1.1-2.25.74-.55,1.54-.83,2.42-.83.93,0,1.76.29,2.51.86s1.12,1.43,1.12,2.56c0,.71-.17,1.39-.5,2.03-.33.64-1.15,1.62-2.44,2.93-1.29,1.31-2.33,2.3-3.11,2.96h5.9l-.53,2.08h-.44c0-.11.02-.22.06-.33.02-.06.03-.15.03-.25,0-.19-.04-.3-.12-.33-.08-.03-.3-.05-.65-.05h-5.46Z"/>
        <path class="cls-2" d="m123.57,12.43c0-1.94.37-3.48,1.1-4.64.73-1.16,1.69-1.74,2.88-1.74s2.15.58,2.88,1.75c.73,1.17,1.1,2.71,1.1,4.63s-.37,3.45-1.09,4.62c-.73,1.17-1.69,1.76-2.89,1.76s-2.15-.58-2.88-1.75c-.73-1.17-1.1-2.71-1.1-4.63Zm1.54,0c0,2.57.21,4.2.64,4.89.43.7,1.03,1.04,1.79,1.04.9,0,1.53-.42,1.89-1.25.36-.83.54-2.4.54-4.69,0-2.57-.22-4.21-.65-4.9-.43-.69-1.02-1.04-1.79-1.04s-1.36.34-1.79,1.03c-.43.69-.65,2.32-.65,4.9Z"/>
        <path class="cls-2" d="m133.36,18.5v-.58c.71-.55,1.6-1.42,2.68-2.61,1.08-1.19,1.86-2.22,2.33-3.08.48-.87.71-1.74.71-2.63,0-1.06-.24-1.84-.72-2.33-.48-.5-1.08-.75-1.8-.75s-1.25.23-1.64.69c-.39.46-.58.95-.58,1.47,0,.59.25,1.06.75,1.41.19.13.28.23.28.3,0,.11-.11.26-.32.45-.21.19-.38.29-.52.29-.19,0-.41-.19-.67-.56-.26-.37-.39-.85-.39-1.44,0-.95.37-1.7,1.1-2.25.74-.55,1.54-.83,2.42-.83.93,0,1.76.29,2.51.86s1.12,1.43,1.12,2.56c0,.71-.17,1.39-.5,2.03-.33.64-1.15,1.62-2.44,2.93-1.29,1.31-2.33,2.3-3.11,2.96h5.9l-.53,2.08h-.44c0-.11.02-.22.06-.33.02-.06.03-.15.03-.25,0-.19-.04-.3-.12-.33-.08-.03-.3-.05-.65-.05h-5.46Z"/>
        <path class="cls-2" d="m146.5,11.75c.19-.06.38-.08.57-.08.91,0,1.62.31,2.15.93.52.62.78,1.4.78,2.34,0,1.13-.39,2.06-1.16,2.78s-1.77,1.09-2.99,1.09c-.82,0-1.52-.19-2.11-.56-.59-.37-.88-.77-.88-1.2,0-.18.06-.33.17-.46.11-.13.26-.19.44-.19.32,0,.55.22.69.66.17.56.42.92.74,1.09.31.17.63.25.94.25.78,0,1.41-.28,1.9-.85.49-.57.73-1.45.73-2.64,0-.96-.18-1.67-.54-2.14-.36-.47-.79-.71-1.29-.71-.43,0-.9.26-1.41.78-.09.09-.18.14-.27.14-.19,0-.28-.1-.28-.3,0-.09.05-.18.14-.27.1-.1.37-.3.81-.6.98-.66,1.62-1.21,1.94-1.65.31-.44.47-.99.47-1.66s-.16-1.13-.49-1.48c-.33-.35-.76-.52-1.31-.52s-1.05.18-1.48.53c-.43.36-.64.81-.64,1.36,0,.44.19.85.57,1.23.04.04.07.08.07.11,0,.08-.1.17-.31.26s-.35.14-.45.14c-.19,0-.37-.15-.54-.44-.17-.29-.25-.61-.25-.95,0-.69.3-1.31.89-1.86s1.39-.83,2.38-.83,1.79.23,2.31.7c.52.47.78.99.78,1.56,0,.51-.18.98-.53,1.41-.36.44-.96.94-1.8,1.51l-.75.52Z"/>
        <path class="cls-2" d="m152.64,17.81c0-.27.1-.51.29-.7s.43-.29.7-.29.51.1.71.29c.19.2.29.43.29.7s-.1.52-.3.71c-.2.2-.43.29-.71.29s-.51-.1-.71-.3c-.19-.2-.29-.43-.29-.7Z"/>
        <path class="cls-2" d="m161.12,6.04h.41v9.85c0,.81,0,1.32.03,1.53.02.21.11.37.26.48.15.11.43.17.83.17h.36v.43h-4.18v-.43h.31c.45,0,.73-.06.87-.19.13-.13.21-.28.23-.45.02-.18.03-.69.03-1.54v-6.61c0-.83,0-1.34-.03-1.52-.02-.18-.1-.33-.24-.46-.14-.13-.43-.2-.87-.2h-.4v-.43c1.07-.02,1.86-.23,2.38-.64Z"/>
        <path class="cls-2" d="m170.62,6.04h.41v9.85c0,.81,0,1.32.03,1.53.02.21.11.37.26.48.15.11.43.17.83.17h.36v.43h-4.18v-.43h.31c.45,0,.73-.06.87-.19.13-.13.21-.28.23-.45.02-.18.03-.69.03-1.54v-6.61c0-.83,0-1.34-.03-1.52-.02-.18-.1-.33-.24-.46-.14-.13-.43-.2-.87-.2h-.4v-.43c1.07-.02,1.86-.23,2.38-.64Z"/>
        <path class="cls-2" d="m176.39,17.81c0-.27.1-.51.29-.7s.43-.29.7-.29.51.1.71.29c.19.2.29.43.29.7s-.1.52-.3.71c-.2.2-.43.29-.71.29s-.51-.1-.71-.3c-.19-.2-.29-.43-.29-.7Z"/>
        <path class="cls-2" d="m184.87,6.04h.41v9.85c0,.81,0,1.32.03,1.53.02.21.11.37.26.48.15.11.43.17.83.17h.36v.43h-4.18v-.43h.31c.45,0,.73-.06.87-.19.13-.13.21-.28.23-.45.02-.18.03-.69.03-1.54v-6.61c0-.83,0-1.34-.03-1.52-.02-.18-.1-.33-.24-.46-.14-.13-.43-.2-.87-.2h-.4v-.43c1.07-.02,1.86-.23,2.38-.64Z"/>
        <path class="cls-2" d="m190.7,8.59l.78-2.55h.33c.01.12.06.21.15.25.09.04.33.06.73.06h4.81l-3.33,10.15c-.36,1.11-.64,1.78-.83,1.99-.19.21-.38.32-.58.32-.37,0-.56-.19-.56-.58,0-.23.17-.71.52-1.46.09-.19.17-.36.23-.52l3.74-8.68h-3.96c-.53,0-.85.01-.96.03-.11.02-.21.09-.3.2-.09.11-.21.38-.35.78h-.42Z"/>
        <path class="cls-2" d="m11,36.38c0,.73-.19,1.44-.58,2.12-.39.68-.96,1.23-1.72,1.66-.76.42-1.66.64-2.7.64-.66,0-1.21-.09-1.66-.26-.45-.18-.79-.41-1.02-.7-.23-.29-.34-.58-.34-.87,0-.31.1-.55.29-.73.2-.18.41-.27.64-.27s.39.05.5.16c.11.11.23.28.35.52.27.47.54.8.82.98.28.18.6.27.95.27.61,0,1.06-.17,1.36-.52.3-.35.48-.74.55-1.17.07-.43.11-.91.11-1.43,0-1.11-.14-1.98-.41-2.61-.27-.63-.76-.94-1.47-.94-.28,0-.57.09-.88.27-.31.18-.56.52-.76,1.02h-.98l.17-6.2h5.7l-.4.82c-.17.35-.3.56-.41.64-.11.07-.28.11-.54.11h-3.53l-.07,3.33c.25-.21.46-.37.63-.48.17-.11.39-.2.66-.28.27-.08.59-.12.97-.12.57,0,1.09.12,1.58.35.48.24.89.54,1.21.93.33.38.57.81.75,1.29.17.48.26.98.26,1.5Z"/>
        <path class="cls-2" d="m18.45,38.85c-.33.7-.72,1.2-1.17,1.5s-.97.45-1.57.45c-.73,0-1.27-.15-1.61-.45s-.56-.63-.64-1c-.08-.37-.12-.78-.12-1.24v-4.37h-1.4v-.85c.59,0,1.1-.11,1.53-.33s.77-.52,1.03-.9c.25-.38.41-.78.48-1.22h.76v2.45h2.62v.85h-2.62v4.43c0,.54.04.93.11,1.16.07.24.25.36.52.36.3,0,.54-.12.73-.35.19-.23.38-.52.56-.87l.8.36Z"/>
        <path class="cls-2" d="m29.38,40.5h-4.77v-.85c.43,0,.72-.08.88-.23.16-.15.24-.37.24-.66v-3.12c0-.31-.02-.59-.06-.83-.04-.25-.15-.47-.32-.67-.17-.2-.44-.3-.8-.3-.29,0-.59.08-.89.24-.3.16-.53.36-.69.62-.17.28-.28.56-.33.82-.05.26-.07.58-.07.95v1.6c0,.43.02.75.05.95.03.2.13.36.29.47.16.11.42.17.78.17v.85h-4.86v-.85c.42,0,.72-.04.91-.13.2-.09.32-.21.36-.38.05-.17.07-.45.07-.84v-7.78c0-.46-.07-.77-.22-.93-.15-.16-.52-.24-1.12-.25v-.83l3.74-.8v6.26c.37-.38.74-.71,1.14-.97.39-.26.94-.39,1.64-.39.32,0,.64.05.96.14.32.09.61.23.87.41.26.18.44.38.56.61.25.45.38,1.04.38,1.76v2.77c0,.52.07.88.2,1.07.13.19.48.29,1.05.29v.85Z"/>
        <path class="cls-2" d="m52.41,40.5h-6.31v-.85c.54,0,.94-.05,1.2-.16.25-.11.42-.27.5-.47.08-.21.12-.49.12-.85v-7.89l-4.75,10.22h-.57l-4.82-10.22v7.49c0,.4.01.7.04.91.03.21.1.39.21.54s.3.26.54.33c.25.07.59.11,1.03.11v.85h-4.66v-.85c.45,0,.79-.04,1.03-.11.24-.07.42-.19.53-.33s.18-.33.2-.53c.02-.21.04-.51.04-.9v-7.12c0-.53-.03-.92-.08-1.15-.05-.23-.21-.41-.46-.53-.25-.12-.67-.18-1.27-.18v-.85h4.6l4.17,8.88,4.18-8.88h4.5v.85c-.77,0-1.27.11-1.5.34-.23.23-.34.61-.34,1.15v7.9c0,.34.04.62.11.83.07.21.25.37.51.49.27.11.67.17,1.21.17v.85Z"/>
        <path class="cls-2" d="m58.36,40.5h-5.04v-.85h.27c.36,0,.62-.05.78-.15.16-.1.26-.24.3-.42.04-.18.06-.44.06-.79v-2.76c0-.38-.02-.66-.07-.82-.05-.16-.17-.28-.36-.35-.2-.07-.52-.11-.98-.12v-.85l3.8-.8v5.7c0,.52.07.88.2,1.07.13.19.48.29,1.04.29v.85Zm-1.05-11.53c0,.37-.13.69-.39.95-.26.26-.58.39-.95.39s-.68-.13-.95-.4c-.27-.27-.4-.58-.4-.94s.13-.69.4-.96c.27-.27.58-.4.96-.4s.7.13.96.39.39.58.39.96Z"/>
        <path class="cls-2" d="m69.77,40.5h-4.81v-.85c.37,0,.63-.05.78-.14.16-.1.25-.24.29-.42s.06-.49.06-.92v-2.63c0-.53-.08-.94-.23-1.25-.15-.31-.47-.46-.95-.46-.65,0-1.13.25-1.45.75-.32.5-.48,1.07-.48,1.72v2.08c0,.49.07.82.21,1,.14.18.45.27.92.27v.85h-4.9v-.85c.4,0,.7-.04.89-.11.19-.07.32-.2.38-.38.06-.18.09-.47.09-.87v-3c0-.43-.08-.72-.25-.85-.17-.13-.54-.2-1.11-.2v-.85l3.61-.8c.06.36.08.69.08,1,0,.08,0,.15,0,.21,0,.06,0,.12,0,.2.39-.41.79-.75,1.21-1.02.42-.26.95-.39,1.58-.39.53,0,1.01.1,1.43.29.42.19.76.48,1,.87.24.39.36.86.36,1.41v3.13c0,.52.07.88.21,1.07.14.19.5.29,1.07.29v.85Z"/>
        <path class="cls-2" d="m75.6,40.5h-5.04v-.85h.27c.36,0,.62-.05.78-.15.16-.1.26-.24.3-.42.04-.18.06-.44.06-.79v-2.76c0-.38-.02-.66-.07-.82-.05-.16-.17-.28-.36-.35-.2-.07-.52-.11-.98-.12v-.85l3.8-.8v5.7c0,.52.07.88.2,1.07.13.19.48.29,1.04.29v.85Zm-1.05-11.53c0,.37-.13.69-.39.95-.26.26-.58.39-.95.39s-.68-.13-.95-.4c-.27-.27-.4-.58-.4-.94s.13-.69.4-.96c.27-.27.58-.4.96-.4s.7.13.96.39.39.58.39.96Z"/>
        <path class="cls-2" d="m93.71,40.5h-5.93v-.85c.5,0,.87-.04,1.09-.11.23-.07.34-.24.34-.51,0-.19-.04-.37-.11-.57l-.59-1.48h-4.08l-.31.82c-.17.46-.26.79-.26.99,0,.37.14.61.43.71.29.1.62.15,1.01.15v.85h-4.33v-.85c.35,0,.64-.06.88-.19.24-.13.47-.38.69-.74.22-.36.46-.87.71-1.54l3.63-9.5h.88l3.83,9.8c.28.69.48,1.16.61,1.41.13.24.31.43.54.57.23.13.55.2.96.2v.85Zm-5.53-4.43l-1.73-4.39-1.65,4.39h3.39Z"/>
        <path class="cls-2" d="m99.46,40.5h-5.33v-.85h.4c.36,0,.62-.05.78-.15.16-.1.26-.24.3-.42.04-.18.06-.44.06-.79v-7.9c0-.45-.1-.73-.31-.85-.21-.12-.62-.19-1.23-.19v-.85l3.93-.8v10.59c0,.35.02.61.05.78.03.18.13.32.3.42.16.1.42.15.78.15h.27v.85Z"/>
        <path class="cls-2" d="m110.37,36.64c0,.59-.11,1.15-.33,1.67-.22.52-.52.96-.91,1.34-.39.38-.84.67-1.34.86-.5.2-1.04.3-1.6.3-.66,0-1.23-.13-1.71-.39-.48-.26-.87-.59-1.18-.99-.57.57-.98,1.03-1.23,1.37h-.72v-10.28c0-.35-.04-.61-.12-.77-.08-.16-.22-.27-.42-.32-.19-.05-.5-.08-.9-.09v-.83l3.84-.82v6c.32-.3.68-.56,1.1-.77.42-.22.96-.33,1.64-.33.63,0,1.19.11,1.68.34.49.23.9.54,1.23.93.33.39.57.82.74,1.3.16.48.25.97.25,1.48Zm-2.57-.07c0-.77-.13-1.46-.38-2.05-.26-.59-.76-.89-1.52-.89-.27,0-.54.05-.8.16-.26.11-.51.25-.73.44s-.43.4-.63.65v3.78c.37.48.74.79,1.11.92.37.13.69.2.98.2.52,0,.93-.17,1.22-.51.3-.34.5-.75.6-1.23.1-.48.15-.96.15-1.47Z"/>
        <path class="cls-2" d="m121.66,40.45c-.18.01-.49.03-.94.06-.45.03-.94.07-1.5.12-.55.05-1,.11-1.33.18v-1.35c-.8.92-1.75,1.37-2.87,1.37-.81,0-1.41-.17-1.8-.52-.39-.35-.63-.73-.72-1.15-.09-.42-.14-.86-.14-1.34v-2.74c0-.36-.02-.63-.07-.8-.04-.17-.16-.3-.34-.39-.19-.09-.49-.13-.92-.13v-.85h3.72v5.11c0,1.05.41,1.58,1.21,1.58.46,0,.86-.17,1.18-.5.32-.33.57-.65.74-.95v-3.06c0-.38-.02-.66-.07-.83-.05-.17-.17-.29-.36-.38-.19-.08-.51-.13-.96-.13v-.85h3.78v5.58c0,.29.03.51.08.65.05.14.18.25.38.33.2.08.5.12.91.12v.85Z"/>
        <path class="cls-2" d="m139.96,40.5h-5.15v-.85c.43,0,.73-.05.91-.14.18-.1.29-.23.33-.4.04-.17.06-.44.06-.81v-2.81c0-.41-.09-.79-.27-1.13-.18-.35-.6-.52-1.25-.52-.46,0-.87.12-1.21.35-.34.23-.6.55-.78.96-.18.41-.27.86-.27,1.36v1.8c0,.38.02.66.07.83.05.17.17.3.36.39.19.09.5.13.94.13v.85h-5.05v-.85c.42,0,.71-.05.9-.14s.29-.23.33-.4c.04-.17.06-.45.06-.82v-2.92c0-.65-.17-1.07-.51-1.26-.34-.19-.66-.28-.96-.28-.4,0-.78.1-1.15.29-.37.19-.65.44-.84.74-.14.22-.22.44-.26.66-.04.22-.06.49-.06.82v1.96c0,.38.02.66.07.83.05.17.17.3.37.39.2.09.51.13.94.13v.85h-5.08v-.85c.42,0,.72-.04.91-.13.18-.09.29-.22.34-.39.04-.17.06-.45.06-.83v-3.17c0-.58-.37-.87-1.12-.87h-.47v-.85l3.92-.8c.05.33.07.8.07,1.41.44-.44.9-.78,1.4-1.03.49-.25,1.06-.38,1.7-.38.6,0,1.17.12,1.73.35.55.24.96.67,1.24,1.3.56-.67,1.1-1.11,1.62-1.33.52-.22,1.05-.32,1.61-.32.98,0,1.73.23,2.26.7s.8,1.18.8,2.13v2.87c0,.35.02.61.05.78.03.18.13.32.3.42.16.1.43.15.78.15h.32v.85Z"/>
        <path class="cls-2" d="m146.64,40.81h-.36v-10.17c0-.74-.02-1.22-.06-1.44-.04-.22-.14-.38-.31-.48-.16-.1-.45-.16-.86-.16v-.43c.37,0,.8-.04,1.32-.13.51-.09.86-.17,1.05-.26h.19v6.01c.43-.39.87-.68,1.32-.87.45-.19.9-.29,1.35-.29,1.09,0,1.99.38,2.69,1.14s1.05,1.73,1.05,2.91-.36,2.18-1.08,2.97c-.72.79-1.65,1.19-2.79,1.19-.56,0-1.06-.12-1.48-.35-.42-.23-.78-.58-1.06-1.05-.4.4-.73.87-.97,1.4Zm.97-6.5v2.98c0,.77.05,1.32.15,1.66.1.34.35.66.74.97.39.31.84.46,1.36.46.8,0,1.43-.33,1.91-.98.47-.66.71-1.6.71-2.83,0-1.13-.22-1.99-.66-2.58-.44-.59-1.03-.89-1.77-.89-.42,0-.83.1-1.24.3-.41.2-.81.51-1.2.91Z"/>
        <path class="cls-2" d="m159.1,39.06l1.76-4.22c.25-.62.38-.96.38-1.03,0-.31-.34-.47-1.03-.48v-.43h2.67v.43c-.41.02-.72.13-.91.33-.19.2-.43.64-.71,1.33l-3.39,8.17c-.32.78-.61,1.31-.85,1.59-.25.28-.52.42-.82.42-.4,0-.6-.18-.6-.55,0-.42.32-.78.96-1.07.38-.17.63-.31.76-.43.13-.12.25-.33.38-.64l.72-1.81-2.86-6.12c-.25-.54-.46-.88-.63-1.02-.17-.14-.45-.21-.85-.21v-.43h3.49v.43c-.61.02-.92.15-.92.38,0,.09.12.4.36.91l2.09,4.44Z"/>
        <path class="cls-2" d="m178.49,36.59h.45l-.27,3.92h-10.42v-.43h.26c.62,0,1.03-.08,1.21-.25s.3-.38.35-.64c.05-.26.07-.91.07-1.96v-6.17c0-.96-.03-1.59-.08-1.89-.05-.3-.17-.51-.36-.64-.19-.12-.59-.18-1.19-.18v-.43h8.99l.3,3.14h-.44c-.2-.88-.44-1.5-.73-1.87-.29-.37-.63-.6-1.03-.7-.4-.1-1.03-.14-1.91-.14h-1.74v5.28h1.34c.61,0,1.04-.05,1.29-.16.24-.1.4-.26.48-.48.08-.21.12-.63.12-1.25h.44v4.3h-.44c0-.7-.06-1.17-.18-1.41-.12-.24-.29-.39-.51-.46-.23-.07-.61-.11-1.15-.11h-1.38v2.98c0,1.49.1,2.37.29,2.63.19.26.71.39,1.55.39h.94c.66,0,1.21-.08,1.63-.25.43-.17.83-.52,1.22-1.05.39-.53.69-1.26.91-2.18Z"/>
        <path class="cls-2" d="m182.13,32.6h.25c.14.38.22.91.24,1.57.45-.53.91-.92,1.4-1.18s1-.39,1.53-.39c.61,0,1.1.13,1.49.38.39.25.64.56.75.93.11.37.17.9.17,1.61v2.38c0,.88.02,1.41.05,1.6.03.19.13.34.29.43.16.1.46.14.9.14v.43h-3.89v-.43h.18c.45,0,.74-.06.87-.19s.21-.28.23-.45c.02-.17.03-.68.03-1.53v-2.45c0-.6-.03-1.03-.09-1.28-.06-.26-.22-.48-.47-.68-.26-.2-.58-.3-.98-.3-.45,0-.88.13-1.29.4-.41.27-.8.67-1.17,1.21v3.1c0,.88.02,1.41.05,1.6.03.19.13.34.3.43.16.1.47.14.91.14v.43h-3.84v-.43c.43,0,.72-.04.89-.13.17-.09.27-.22.31-.39.04-.18.06-.73.06-1.66v-2.26c0-.88-.02-1.42-.05-1.61-.03-.19-.13-.33-.3-.43-.16-.1-.47-.14-.91-.14v-.43c.68-.07,1.38-.22,2.09-.43Z"/>
        <path class="cls-2" d="m192.71,34.16c.37-.52.79-.91,1.25-1.17.46-.26.97-.39,1.52-.39.62,0,1.14.13,1.55.39s.68.58.8.96c.12.38.19,1,.19,1.85v2.1c0,.89.02,1.43.05,1.62.03.19.13.33.3.42.17.09.48.13.93.13v.43h-3.92v-.43h.18c.45,0,.74-.06.88-.19.13-.13.21-.28.23-.46.02-.18.03-.68.03-1.53v-2.28c0-.63-.04-1.1-.11-1.4-.07-.3-.25-.55-.52-.75-.28-.2-.62-.3-1.04-.3-.48,0-.92.14-1.3.42-.38.28-.72.7-1.01,1.27v3.04c0,.85.01,1.38.04,1.58.03.2.12.35.28.45.16.1.45.15.88.15v.43h-3.86v-.43h.2c.45,0,.73-.06.87-.19.13-.13.21-.28.23-.45.02-.18.03-.69.03-1.54v-7.57c0-.77-.07-1.25-.22-1.46s-.49-.31-1.04-.31v-.43c.96,0,1.76-.13,2.39-.39h.19v6.41Z"/>
        <path class="cls-2" d="m204.1,39.06l1.76-4.22c.25-.62.38-.96.38-1.03,0-.31-.34-.47-1.03-.48v-.43h2.67v.43c-.41.02-.72.13-.91.33-.19.2-.43.64-.71,1.33l-3.39,8.17c-.32.78-.61,1.31-.85,1.59-.25.28-.52.42-.82.42-.4,0-.6-.18-.6-.55,0-.42.32-.78.96-1.07.38-.17.63-.31.76-.43.13-.12.25-.33.38-.64l.72-1.81-2.86-6.12c-.25-.54-.46-.88-.63-1.02-.17-.14-.45-.21-.85-.21v-.43h3.49v.43c-.61.02-.92.15-.92.38,0,.09.12.4.36.91l2.09,4.44Z"/>
        <path class="cls-2" d="m210.23,32.6h.25c.11.35.16.76.16,1.25.4-.42.82-.73,1.28-.94.45-.21.94-.31,1.44-.31,1.05,0,1.93.37,2.63,1.11.7.74,1.05,1.72,1.05,2.93s-.35,2.18-1.05,2.98c-.7.8-1.62,1.2-2.77,1.2-.47,0-.92-.09-1.35-.28-.43-.19-.84-.47-1.22-.84v2.89c0,.88.02,1.41.05,1.6.03.19.13.34.29.43.16.1.46.14.9.14v.43h-3.97v-.43h.28c.44,0,.72-.06.86-.19.13-.13.21-.28.23-.45.02-.18.03-.69.03-1.54v-6.9c0-.81-.01-1.32-.03-1.53-.02-.21-.11-.37-.26-.48s-.43-.17-.83-.17h-.28v-.43c.61-.06,1.39-.22,2.32-.46Zm.41,6.48c.33.41.69.72,1.06.92.37.21.77.31,1.18.31.7,0,1.31-.3,1.83-.9.52-.6.78-1.56.78-2.87,0-1.14-.25-1.99-.75-2.55-.5-.56-1.1-.84-1.79-.84-.43,0-.83.11-1.22.32-.38.22-.75.54-1.09.98v4.62Z"/>
        <path class="cls-2" d="m225.37,35.47h-5.3c-.02.37-.04.64-.04.82,0,1.34.21,2.34.63,3.01.42.67,1.04,1.01,1.87,1.01,1.13,0,1.92-.5,2.39-1.51h.45c-.2.63-.59,1.12-1.18,1.48-.59.36-1.23.53-1.92.53-.64,0-1.25-.16-1.82-.49-.57-.33-1.04-.78-1.41-1.38s-.55-1.31-.55-2.16c0-1.2.35-2.2,1.06-2.99.71-.79,1.59-1.19,2.64-1.19,1,0,1.77.3,2.31.91.54.61.83,1.26.86,1.97Zm-1.62-.37c.02-.14.03-.27.03-.38,0-.54-.16-.97-.48-1.27-.32-.3-.71-.45-1.17-.45-1.13,0-1.8.7-2.01,2.1h3.64Z"/>
        <path class="cls-2" d="m228.71,32.6h.25c.14.38.22.91.24,1.57.45-.53.91-.92,1.4-1.18s1-.39,1.53-.39c.61,0,1.1.13,1.49.38.39.25.64.56.75.93.11.37.17.9.17,1.61v2.38c0,.88.02,1.41.05,1.6.03.19.13.34.29.43.16.1.46.14.9.14v.43h-3.89v-.43h.18c.45,0,.74-.06.87-.19s.21-.28.23-.45c.02-.17.03-.68.03-1.53v-2.45c0-.6-.03-1.03-.09-1.28-.06-.26-.22-.48-.47-.68-.26-.2-.58-.3-.98-.3-.45,0-.88.13-1.29.4-.41.27-.8.67-1.17,1.21v3.1c0,.88.02,1.41.05,1.6.03.19.13.34.3.43.16.1.47.14.91.14v.43h-3.84v-.43c.43,0,.72-.04.89-.13.17-.09.27-.22.31-.39.04-.18.06-.73.06-1.66v-2.26c0-.88-.02-1.42-.05-1.61-.03-.19-.13-.33-.3-.43-.16-.1-.47-.14-.91-.14v-.43c.68-.07,1.38-.22,2.09-.43Z"/>
        <path class="cls-2" d="m13.93,58.3l-.08,4.2H2.64v-.85c.77,0,1.27-.11,1.49-.33s.33-.61.33-1.15v-7.9c0-.36-.04-.65-.11-.85-.07-.2-.25-.36-.51-.47-.27-.11-.67-.17-1.2-.17v-.85h6.33v.85c-.53,0-.92.05-1.19.16-.27.11-.45.26-.53.46-.08.2-.12.49-.12.87v7.24c0,.57.03.98.08,1.22.05.25.21.43.45.56.25.13.65.19,1.22.19.71,0,1.33-.05,1.87-.16.53-.11,1.03-.4,1.48-.86.45-.47.74-1.18.85-2.15h.85Z"/>
        <path class="cls-2" d="m24.76,60.54c0,.47-.1.87-.29,1.2-.19.33-.45.58-.77.73-.32.16-.69.24-1.1.24-.52,0-.95-.12-1.3-.37-.35-.24-.55-.54-.62-.88-1.03.83-2.07,1.24-3.12,1.24-.67,0-1.22-.16-1.64-.49-.43-.33-.64-.75-.64-1.29,0-.44.11-.84.34-1.19.23-.36.56-.67,1.01-.95s.97-.52,1.58-.74c.61-.21,1.38-.44,2.29-.67v-.53c0-.44-.1-.78-.31-1.03-.21-.25-.59-.38-1.15-.38-.48,0-.82.1-1.03.3-.21.2-.35.5-.42.9-.05.28-.14.52-.27.7-.13.18-.41.27-.83.27-.26,0-.49-.07-.69-.22-.2-.15-.3-.37-.3-.66,0-.58.31-1.08.94-1.5s1.58-.64,2.88-.64c1.36,0,2.3.23,2.81.69.51.46.77,1.07.77,1.84v2.93c0,.37,0,.64.03.82.02.17.07.3.15.39.08.09.21.13.39.13.16,0,.3-.08.42-.25.12-.17.18-.37.18-.6h.69Zm-4.26.07v-2.3c-1.17.37-1.92.73-2.24,1.09-.32.36-.48.7-.48,1.04,0,.28.09.51.26.69.17.17.42.26.73.26.34,0,.64-.07.9-.21.26-.14.54-.33.83-.57Z"/>
        <path class="cls-2" d="m34.97,58.64c0,.59-.11,1.15-.33,1.67-.22.52-.52.96-.91,1.34-.39.38-.84.67-1.34.86-.5.2-1.04.3-1.6.3-.66,0-1.23-.13-1.71-.39-.48-.26-.87-.59-1.18-.99-.57.57-.98,1.03-1.23,1.37h-.72v-10.28c0-.35-.04-.61-.12-.77-.08-.16-.22-.27-.42-.32-.19-.05-.5-.08-.9-.09v-.83l3.84-.82v6c.32-.3.68-.56,1.1-.77.42-.22.96-.33,1.64-.33.63,0,1.19.11,1.68.34.49.23.9.54,1.23.93.33.39.57.82.74,1.3.16.48.25.97.25,1.48Zm-2.57-.07c0-.77-.13-1.46-.38-2.05-.26-.59-.76-.89-1.52-.89-.27,0-.54.05-.8.16-.26.11-.51.25-.73.44s-.43.4-.63.65v3.78c.37.48.74.79,1.11.92.37.13.69.2.98.2.52,0,.93-.17,1.22-.51.3-.34.5-.75.6-1.23.1-.48.15-.96.15-1.47Z"/>
        <path class="cls-2" d="m44.74,58.42h-5.71c0,.12.02.37.05.75.03.38.11.78.26,1.18.15.4.4.74.75,1.02.36.28.83.41,1.43.41.33,0,.72-.08,1.19-.25.46-.17.87-.49,1.21-.96l.72.49c-.73,1.17-1.89,1.75-3.48,1.75-.71,0-1.36-.1-1.94-.31-.58-.2-1.08-.49-1.49-.85-.41-.36-.72-.79-.94-1.29-.22-.49-.33-1.03-.33-1.6,0-.75.18-1.44.54-2.08.36-.64.88-1.14,1.55-1.52.67-.38,1.44-.57,2.31-.57s1.56.18,2.15.55c.58.37,1.02.84,1.29,1.42.28.58.42,1.2.42,1.86Zm-2.3-.85c0-1.41-.56-2.12-1.67-2.12-.54,0-.95.19-1.24.58-.29.39-.45.9-.48,1.53h3.39Z"/>
        <path class="cls-2" d="m50.98,62.5h-5.33v-.85h.4c.36,0,.62-.05.78-.15.16-.1.26-.24.3-.42.04-.18.06-.44.06-.79v-7.9c0-.45-.1-.73-.31-.85-.21-.12-.62-.19-1.23-.19v-.85l3.93-.8v10.59c0,.35.02.61.05.78.03.18.13.32.3.42.16.1.42.15.78.15h.27v.85Z"/>
        <path class="cls-2" d="m52.74,55.38c0-.27.09-.5.28-.7.19-.2.43-.3.71-.3s.51.1.71.29c.19.2.29.43.29.71s-.1.51-.3.7c-.2.2-.43.29-.71.29s-.51-.1-.71-.3c-.19-.2-.29-.43-.29-.7Zm0,6.43c0-.27.1-.51.29-.7s.43-.29.7-.29.51.1.71.29c.19.2.29.43.29.7s-.1.52-.3.71c-.2.2-.43.29-.71.29s-.51-.1-.71-.3c-.19-.2-.29-.43-.29-.7Z"/>
        <path class="cls-2" d="m67.46,55.73c1.43.11,2.49.46,3.18,1.07.69.61,1.04,1.36,1.04,2.27,0,.79-.24,1.47-.71,2.05-.47.57-1.07.95-1.8,1.12-.73.18-1.71.26-2.95.26h-4.94v-.43h.48c.54,0,.91-.07,1.12-.2.21-.14.34-.35.39-.64.06-.29.08-.96.08-2.01v-6.12c0-1.02-.03-1.68-.09-1.98-.06-.3-.18-.5-.37-.61-.19-.11-.6-.17-1.24-.17h-.24v-.43l2.07-.06,2.36-.07c3.44,0,5.16.99,5.16,2.97,0,.82-.3,1.47-.89,1.97-.59.5-1.48.83-2.67,1Zm-2.27-.18c.15,0,.28,0,.39,0,1.34,0,2.25-.21,2.74-.63.49-.42.73-1.1.73-2.04,0-.66-.1-1.16-.29-1.52-.19-.36-.48-.64-.86-.83-.38-.2-1.04-.29-1.97-.29-.24,0-.49,0-.74.03v5.28Zm0,.45v2.8c0,1.19.02,1.95.06,2.27.04.32.16.57.35.73.19.17.56.25,1.12.25.99,0,1.73-.25,2.23-.76.49-.51.74-1.27.74-2.28s-.28-1.8-.84-2.3c-.56-.49-1.54-.74-2.96-.74-.22,0-.46,0-.71.02Z"/>
        <path class="cls-2" d="m80.11,57.47h-5.3c-.02.37-.04.64-.04.82,0,1.34.21,2.34.63,3.01.42.67,1.04,1.01,1.87,1.01,1.13,0,1.92-.5,2.39-1.51h.45c-.2.63-.59,1.12-1.18,1.48-.59.36-1.23.53-1.92.53-.64,0-1.25-.16-1.82-.49-.57-.33-1.04-.78-1.41-1.38s-.55-1.31-.55-2.16c0-1.2.35-2.2,1.06-2.99.71-.79,1.59-1.19,2.64-1.19,1,0,1.77.3,2.31.91.54.61.83,1.26.86,1.97Zm-1.62-.37c.02-.14.03-.27.03-.38,0-.54-.16-.97-.48-1.27-.32-.3-.71-.45-1.17-.45-1.13,0-1.8.7-2.01,2.1h3.64Z"/>
        <path class="cls-2" d="m83.75,49.75v10.15c0,.81.01,1.32.03,1.53.02.21.11.37.26.48s.43.17.83.17h.22v.43h-4.06v-.43h.26c.37,0,.63-.05.79-.15.16-.1.25-.25.28-.43.03-.19.05-.72.05-1.6v-7.51c0-.8-.07-1.3-.21-1.51-.14-.21-.49-.31-1.04-.31v-.43c.38,0,.82-.04,1.33-.13.51-.09.86-.17,1.05-.26h.2Z"/>
        <path class="cls-2" d="m88.45,54.6v5.3c0,.81.01,1.32.04,1.53.02.21.11.37.27.48.16.11.43.17.83.17h.2v.43h-4.09v-.43h.32c.44,0,.72-.06.86-.19.13-.13.21-.28.23-.45.02-.18.03-.69.03-1.54v-2.3c0-.89-.04-1.43-.12-1.63-.08-.2-.19-.32-.33-.37-.14-.05-.38-.07-.73-.07h-.25v-.43c1.1-.11,1.95-.27,2.56-.49h.2Zm-1.79-3.88c0-.27.09-.49.28-.69.19-.19.42-.29.68-.29s.49.1.68.29c.19.19.28.42.28.69s-.09.5-.28.7c-.19.19-.41.29-.68.29s-.49-.1-.68-.29c-.19-.19-.28-.42-.28-.7Z"/>
        <path class="cls-2" d="m94.76,54.9v.43h-1.59v4.56c0,.81.01,1.32.03,1.53.02.21.11.37.26.48.16.11.43.17.83.17h.4v.43h-4.11v-.43c.43,0,.72-.04.89-.13.16-.09.27-.22.31-.39.04-.18.06-.73.06-1.66v-4.56h-1.42v-.43h1.42v-.69c0-.77.03-1.36.09-1.78.06-.42.24-.85.52-1.3.29-.45.65-.79,1.09-1.03.44-.24.95-.36,1.55-.36.73,0,1.31.15,1.75.45.44.3.66.61.66.93,0,.18-.06.33-.19.45-.12.12-.27.18-.44.18-.33,0-.63-.25-.9-.76-.3-.56-.7-.83-1.18-.83-.39,0-.73.14-1.02.42-.29.28-.47.63-.52,1.05-.06.42-.08,1.32-.08,2.71v.58h1.59Z"/>
        <path class="cls-2" d="m100.5,55.33h-2.29v4.59c0,.71.03,1.18.09,1.42.06.24.19.44.39.59s.42.22.65.22c.45,0,.83-.25,1.16-.76l.3.18c-.19.41-.47.72-.85.92-.38.21-.75.31-1.14.31-.45,0-.84-.13-1.17-.39-.34-.26-.55-.57-.63-.92-.08-.35-.12-.97-.12-1.86v-4.3h-1.1v-.43c.51-.01.96-.23,1.36-.64.4-.41.66-1,.77-1.74h.3v2.38h2.29v.43Z"/>
        <path class="cls-2" d="m116.89,58.8l-.09,3.7h-10.69v-.43h.37c.54,0,.91-.07,1.12-.2.21-.14.34-.35.4-.64.06-.29.09-.96.09-2.01v-6.17c0-1-.03-1.65-.09-1.94-.06-.29-.18-.49-.37-.6s-.6-.17-1.24-.17h-.28v-.43h6.04v.43h-.56c-.62,0-1.02.05-1.22.15-.19.1-.32.29-.38.57-.07.28-.1.94-.1,1.99v6.59c0,.91.02,1.48.07,1.71.05.23.18.41.4.53.22.13.69.19,1.42.19h.96c.77,0,1.35-.07,1.72-.2.37-.14.73-.43,1.07-.89.34-.46.64-1.18.92-2.18h.44Z"/>
        <path class="cls-2" d="m125.42,61.11h.34c-.05,1.06-.57,1.59-1.56,1.59-.42,0-.75-.11-1-.33s-.4-.55-.48-.99c-.62.44-1.18.77-1.69.99-.51.22-.97.33-1.37.33-.51,0-.96-.15-1.33-.45s-.56-.69-.56-1.18c0-.64.31-1.19.93-1.67.62-.48,1.48-.94,2.58-1.39l1.44-.58v-.37c0-.53-.03-.91-.1-1.14-.07-.23-.25-.45-.53-.63s-.66-.28-1.12-.28c-.93,0-1.44.31-1.55.93-.1.63-.36.95-.78.95-.38,0-.57-.18-.57-.54s.25-.73.75-1.14c.5-.4,1.28-.61,2.34-.61.79,0,1.39.12,1.83.37.43.25.72.53.86.84.14.32.21.8.21,1.45v3.07c0,.72.04,1.18.11,1.38s.24.31.48.31c.41,0,.66-.3.76-.91Zm-2.69-3.25l-1.01.41c-1.6.65-2.39,1.47-2.39,2.45,0,.39.1.7.31.94.2.24.47.36.8.36.29,0,.63-.1,1.01-.29s.81-.48,1.29-.86v-3.01Z"/>
        <path class="cls-2" d="m127.79,62.81h-.36v-10.17c0-.74-.02-1.22-.06-1.44-.04-.22-.14-.38-.31-.48-.16-.1-.45-.16-.86-.16v-.43c.37,0,.8-.04,1.32-.13.51-.09.86-.17,1.05-.26h.19v6.01c.43-.39.87-.68,1.32-.87.45-.19.9-.29,1.35-.29,1.09,0,1.99.38,2.69,1.14s1.05,1.73,1.05,2.91-.36,2.18-1.08,2.97c-.72.79-1.65,1.19-2.79,1.19-.56,0-1.06-.12-1.48-.35-.42-.23-.78-.58-1.06-1.05-.4.4-.73.87-.97,1.4Zm.97-6.5v2.98c0,.77.05,1.32.15,1.66.1.34.35.66.74.97.39.31.84.46,1.36.46.8,0,1.43-.33,1.91-.98.47-.66.71-1.6.71-2.83,0-1.13-.22-1.99-.66-2.58-.44-.59-1.03-.89-1.77-.89-.42,0-.83.1-1.24.3-.41.2-.81.51-1.2.91Z"/>
        <path class="cls-2" d="m136.18,66.12v-.46c.66-.19,1.17-.53,1.53-1.01.37-.48.55-.96.55-1.44,0-.41-.13-.61-.39-.61-.05,0-.13.02-.24.05-.09.03-.18.05-.26.05-.28,0-.51-.08-.7-.25-.19-.16-.28-.38-.28-.64,0-.28.09-.52.27-.71.18-.19.41-.28.7-.28.44,0,.8.2,1.07.61.28.41.41.88.41,1.42,0,.79-.24,1.48-.72,2.07-.48.59-1.13,1-1.94,1.21Z"/>
        <path class="cls-2" d="m151.8,57l2.48-4.17c.41-.68.61-1.16.61-1.45,0-.26-.11-.5-.32-.71-.22-.22-.6-.32-1.16-.32v-.43h4.11v.43c-.57.08-1.03.29-1.38.64-.35.34-.8.97-1.34,1.87l-2.82,4.7v1.67c0,1.07.03,1.75.1,2.05.06.29.2.5.42.62.21.12.63.18,1.26.18v.43h-5.36v-.43h.21c.54,0,.91-.07,1.12-.2.21-.14.34-.35.39-.64.06-.29.08-.96.08-2.01v-1.55l-3.14-5.15c-.64-1.04-1.06-1.66-1.27-1.86-.21-.2-.59-.31-1.13-.32v-.43h5.1v.43c-.95,0-1.43.22-1.43.65,0,.17.16.52.47,1.04l3.01,4.96Z"/>
        <path class="cls-2" d="m165.07,57.13h5.43v.45c-.6,0-1.01.06-1.22.18-.21.12-.35.32-.42.6-.07.28-.1.96-.1,2.05v1.34c-.15-.02-.28-.04-.4-.04-.48,0-1.1.15-1.87.44-1.05.4-2.03.59-2.92.59-1.8,0-3.3-.59-4.49-1.78-1.19-1.18-1.79-2.69-1.79-4.5s.57-3.38,1.71-4.73c1.14-1.35,2.68-2.03,4.64-2.03,1.68,0,3.07.62,4.17,1.86.21-.43.33-.9.39-1.4h.45v4.2h-.45c-.18-1.29-.67-2.32-1.47-3.07-.8-.75-1.77-1.13-2.92-1.13s-2.21.44-3.09,1.32c-.88.88-1.32,2.44-1.32,4.68s.42,3.81,1.27,4.75c.85.93,1.9,1.4,3.15,1.4.64,0,1.23-.13,1.75-.39.53-.26.88-.58,1.08-.96.19-.38.29-.85.29-1.43,0-.67-.04-1.12-.13-1.35-.09-.23-.23-.38-.41-.46-.19-.08-.53-.12-1.02-.12h-.3v-.45Z"/>
        <path class="cls-2" d="m180.07,56.58v2.64c0,.99.02,1.64.07,1.94.05.31.17.53.38.68.21.15.59.22,1.15.22h.42v.43h-5.76v-.43h.33c.54,0,.91-.07,1.12-.2.21-.14.34-.35.39-.64.06-.29.08-.96.08-2.01v-6.17c0-1-.03-1.65-.08-1.94-.06-.29-.18-.49-.37-.6s-.61-.17-1.24-.17h-.23v-.43l1.58-.06c1.26-.04,2.24-.06,2.95-.06,1.3,0,2.3.1,3,.31.7.2,1.28.57,1.73,1.09.45.52.67,1.18.67,1.97,0,.69-.15,1.29-.46,1.82-.31.53-.75.92-1.32,1.2-.57.27-1.58.41-3.02.41h-1.38Zm0-.46h.9c.72,0,1.31-.07,1.75-.22.45-.15.82-.45,1.11-.91s.45-1.04.45-1.72c0-1.04-.26-1.8-.77-2.29-.51-.49-1.34-.73-2.48-.73-.42,0-.74.01-.96.04v5.83Z"/>
        <path class="cls-2" d="m189.3,49.75v10.15c0,.81.01,1.32.03,1.53.02.21.11.37.26.48s.43.17.83.17h.22v.43h-4.06v-.43h.26c.37,0,.63-.05.79-.15.16-.1.25-.25.28-.43.03-.19.05-.72.05-1.6v-7.51c0-.8-.07-1.3-.21-1.51-.14-.21-.49-.31-1.04-.31v-.43c.38,0,.82-.04,1.33-.13.51-.09.86-.17,1.05-.26h.2Z"/>
        <path class="cls-2" d="m199.2,54.9v4.98c0,.83.01,1.35.04,1.56.02.21.12.37.27.47.16.11.44.16.85.16v.43c-.94.01-1.63.11-2.06.3h-.11c-.2-.34-.3-.93-.32-1.76-.38.59-.81,1.03-1.29,1.33s-1.02.45-1.61.45c-.51,0-.96-.12-1.34-.35-.39-.23-.66-.51-.8-.85-.15-.33-.22-.84-.22-1.51v-2.59c0-.88-.01-1.42-.05-1.61-.03-.2-.13-.34-.29-.43-.16-.09-.47-.14-.9-.14v-.43h2.58v5.27c0,.52.03.9.09,1.13.06.24.22.44.47.62.25.18.55.26.88.26.48,0,.93-.16,1.36-.47.43-.31.73-.64.89-.99.16-.35.24-.85.24-1.5v-1.72c0-.83,0-1.33-.03-1.51-.02-.18-.1-.34-.24-.47-.14-.13-.43-.2-.87-.2h-.2v-.43h2.65Z"/>
        <path class="cls-2" d="m201.61,62.74v-2.5h.36c.42,1.44,1.17,2.16,2.25,2.16.47,0,.82-.14,1.05-.43.23-.28.35-.6.35-.94,0-.4-.12-.72-.37-.97-.25-.25-.75-.56-1.47-.92-.77-.38-1.32-.75-1.65-1.11-.33-.36-.5-.8-.5-1.33s.18-.98.54-1.43c.36-.45.86-.68,1.51-.68s1.21.27,1.64.81c.09-.09.21-.32.36-.68h.34v2.35h-.34c-.12-.56-.36-1.05-.72-1.45-.36-.41-.77-.61-1.26-.61-.37,0-.67.11-.9.34-.23.23-.34.5-.34.8,0,.33.13.62.38.86.25.25.72.53,1.42.84,1.05.48,1.69.94,1.93,1.39.23.46.35.9.35,1.32,0,.66-.22,1.2-.65,1.61-.44.41-.99.62-1.65.62-.7,0-1.32-.29-1.86-.86-.17.19-.3.45-.41.8h-.36Z"/>
        <rect class="cls-1" y=".65" width="239.33" height="67.95"/>
      </g>
    </g>
  </g>
</svg>